<svg id="logo" xmlns="http://www.w3.org/2000/svg" width="218.127" height="67.26" viewBox="0 0 218.127 67.26">
  <path id="Path_650" data-name="Path 650" d="M29.273,22.842a4.079,4.079,0,1,0,0,8.158H41.379a13.69,13.69,0,1,1-2.311-11.03l.307.42h8.956l-.678-1.458a21.634,21.634,0,1,0-26.5,29.609l1.266,7.529H10.4A10.4,10.4,0,0,1,0,45.669V10.4A10.4,10.4,0,0,1,10.4,0H45.669a10.4,10.4,0,0,1,10.4,10.4V45.669a10.4,10.4,0,0,1-10.4,10.4H36.164L27.743,67.26l1.978-11.191h1.736l1.164-6.888A21.658,21.658,0,0,0,49.237,23.662l-.168-.819Z" fill="#191919"/>
  <path id="Path_666" data-name="Path 666" d="M29.273,23.867h18.96a20.7,20.7,0,0,1,.422,4.167c0,.666-.038,1.321-.1,1.97-.021.216-.057.428-.084.642q-.078.64-.2,1.274c-.048.251-.106.5-.164.746q-.127.56-.284,1.106-.114.392-.241.777c-.114.338-.237.671-.366,1-.1.262-.205.525-.318.782-.137.308-.287.608-.438.909-.131.262-.254.526-.4.781s-.3.5-.456.75a20.481,20.481,0,0,1-1.222,1.781c-.1.124-.182.254-.28.375-.265.33-.548.642-.832.954-.117.128-.229.258-.348.383-.3.312-.609.609-.926.9-.113.1-.226.209-.341.311q-.512.451-1.051.868c-.088.067-.176.132-.264.2-.4.3-.808.587-1.23.857l-.013.008a20.539,20.539,0,0,1-21.824.192c-.083-.051-.168-.1-.251-.153q-.556-.351-1.085-.738c-.113-.081-.224-.167-.335-.251q-.513-.383-1-.8c-.078-.067-.152-.14-.229-.209a20.594,20.594,0,0,1-1.763-1.763c-.1-.109-.2-.213-.3-.324-.221-.26-.427-.532-.634-.8q-.243-.312-.475-.633-.538-.762-1.005-1.57c-.141-.243-.284-.483-.416-.733-.2-.382-.386-.774-.564-1.171-.089-.2-.182-.4-.265-.6q-.305-.743-.554-1.514c-.066-.2-.12-.413-.179-.619-.115-.4-.22-.8-.311-1.207q-.213-.97-.336-1.956c-.025-.2-.055-.4-.074-.6-.059-.635-.1-1.276-.1-1.925a20.608,20.608,0,0,1,39.309-8.671H39.882a14.857,14.857,0,0,0-3.643-3.516,14.708,14.708,0,1,0,6.347,14.127H29.273a3.054,3.054,0,1,1,0-6.108" fill="#ea331b"/>
  <g id="Group_411" data-name="Group 411">
    <path id="Path_667" data-name="Path 667" d="M88.411,26.148a12.042,12.042,0,0,1-3.5,8.836,12.641,12.641,0,0,1-17.475.046,11.6,11.6,0,0,1-3.574-8.608A11.236,11.236,0,0,1,67.5,17.889a12.745,12.745,0,0,1,15.8-1.095,10.584,10.584,0,0,1,4.426,5.916h-6.6a5.461,5.461,0,0,0-5.079-2.98,5.889,5.889,0,0,0-4.563,1.977,6.77,6.77,0,0,0-1.734,4.715,7.163,7.163,0,0,0,1.688,4.867,5.846,5.846,0,0,0,4.639,2.053,6.375,6.375,0,0,0,3.437-.9,4.692,4.692,0,0,0,2.069-2.813H74.706v-4.7H88.378q.015.274.031.608Z" fill="#ea331b"/>
    <path id="Path_668" data-name="Path 668" d="M118.094,38.062V15.005h5.885V32.89h6.829v5.172Z" fill="#ea331b"/>
    <path id="Path_669" data-name="Path 669" d="M138.751,20.176V24.1h6.692v5.171h-6.692v8.791h-5.642V15.005h12.578v5.171Z" fill="#ea331b"/>
    <path id="Path_670" data-name="Path 670" d="M171.729,29.431A11.582,11.582,0,0,1,167.486,36a12.319,12.319,0,0,1-16-.973,12.007,12.007,0,0,1-.031-17.034,11.812,11.812,0,0,1,8.562-3.423,11.458,11.458,0,0,1,10.145,5.415,9.678,9.678,0,0,1,1.566,3.772h-6.179a5.581,5.581,0,0,0-5.566-4.015,5.691,5.691,0,0,0-4.486,2.022,6.931,6.931,0,0,0-1.688,4.7,7.089,7.089,0,0,0,1.688,4.761,5.664,5.664,0,0,0,4.516,2.1q3.773,0,5.536-3.893Z" fill="#ea331b"/>
    <path id="Path_671" data-name="Path 671" d="M174.766,38.062V15.005h5.886V38.062Z" fill="#ea331b"/>
    <path id="Path_672" data-name="Path 672" d="M193.473,20.176V38.062h-5.885V20.176H183.04V15.005h14.95v5.171Z" fill="#ea331b"/>
    <path id="Path_673" data-name="Path 673" d="M211.313,29.681v8.381h-5.886V29.681l-6.89-14.676h6.388l3.423,9.261L211.8,15h6.327Z" fill="#ea331b"/>
    <g id="Group_410" data-name="Group 410" transform="translate(91.128 14.332)">
      <circle id="Ellipse_104" data-name="Ellipse 104" cx="1.409" cy="1.409" r="1.409" transform="translate(7.093 14.812)" fill="#ea331b"/>
      <circle id="Ellipse_105" data-name="Ellipse 105" cx="1.409" cy="1.409" r="1.409" transform="translate(13.851 17.63)" fill="#ea331b"/>
      <circle id="Ellipse_106" data-name="Ellipse 106" cx="1.409" cy="1.409" r="1.409" transform="translate(2.665 7.94)" fill="#ea331b"/>
      <circle id="Ellipse_107" data-name="Ellipse 107" cx="0.996" cy="0.996" r="0.996" transform="translate(3.078 14.42)" fill="#ea331b"/>
      <circle id="Ellipse_108" data-name="Ellipse 108" cx="0.996" cy="0.996" r="0.996" transform="translate(9.576 19.643)" fill="#ea331b"/>
      <path id="Path_674" data-name="Path 674" d="M12.2,0A12.2,12.2,0,1,0,24.4,12.2,12.2,12.2,0,0,0,12.2,0Zm5.614,15.659a1.419,1.419,0,0,1,1.99-.269,1.394,1.394,0,0,1,.532,1.2,1.391,1.391,0,0,0-.5-.786,1.419,1.419,0,0,0-1.99.269,1.382,1.382,0,0,0-.262.787,1.393,1.393,0,0,1,.225-1.2Zm-4.091-2.63a1.536,1.536,0,0,1,1.535,1.535,1.509,1.509,0,0,1-.686,1.246,1.509,1.509,0,0,0,.352-.941,1.536,1.536,0,0,0-1.535-1.535,1.5,1.5,0,0,0-.85.29,1.508,1.508,0,0,1,1.184-.595ZM12.2,23.45A11.243,11.243,0,0,1,8.589,1.558a11.634,11.634,0,0,0-.453,3.091,1.369,1.369,0,0,0-.151-.016A1.409,1.409,0,1,0,8.437,7.37c.077.337.164.669.27.994a2.265,2.265,0,1,0,2.134,3.877,11.79,11.79,0,0,0,1.2,1.225,2.026,2.026,0,1,0,3.422,2.145,11.663,11.663,0,0,0,1.769.554,1.7,1.7,0,0,0-.024.239,1.735,1.735,0,1,0,3.469.037,11.7,11.7,0,0,0,2.07-.348A11.258,11.258,0,0,1,12.2,23.45Z" fill="#ea331b"/>
    </g>
  </g>
</svg>
