<svg xmlns="http://www.w3.org/2000/svg" version="1.1" xmlns:xlink="http://www.w3.org/1999/xlink" width="512" height="512" x="0" y="0" viewBox="0 0 512 512" style="enable-background:new 0 0 512 512" xml:space="preserve"><g><path d="M477.083 440.502c19.253 0 34.917-15.664 34.917-34.918V50c0-27.57-22.43-50-50-50H50C22.43 0 0 22.43 0 50v355.584c0 19.254 15.664 34.918 34.917 34.918H46V492H10c-5.523 0-10 4.478-10 10s4.477 10 10 10h492c5.523 0 10-4.478 10-10s-4.477-10-10-10h-36v-51.498h11.083zM20 50c0-16.542 13.458-30 30-30h412c16.542 0 30 13.458 30 30v22H21.004c-.339 0-.674.018-1.004.051V50zm90 442H66v-90h44v90zm112 0h-44V291.432h44V492zm112 0h-44V376h44v116zm122-235.5h-64c-5.523 0-10 4.478-10 10v50.499c0 5.522 4.477 10 10 10s10-4.478 10-10V276.5h44V492h-44V384.25c0-5.522-4.477-10-10-10s-10 4.478-10 10V492h-28V366c0-5.522-4.477-10-10-10h-64c-5.523 0-10 4.478-10 10v126h-28V281.432c0-5.522-4.477-10-10-10h-64c-5.523 0-10 4.478-10 10V492h-28V392c0-5.522-4.477-10-10-10H56c-5.523 0-10 4.478-10 10v28.502H34.917c-8.226 0-14.917-6.692-14.917-14.918V91.949c.33.033.665.051 1.004.051H492v313.584c0 8.226-6.692 14.918-14.917 14.918H466V266.5c0-5.522-4.477-10-10-10z" fill="#ffffff" opacity="1" data-original="#000000"></path><path d="M448 36H222.065c-5.523 0-10 4.478-10 10s4.477 10 10 10H448c5.523 0 10-4.478 10-10s-4.477-10-10-10zM111.07 38.93C109.21 37.07 106.63 36 104 36s-5.21 1.069-7.07 2.93C95.07 40.79 94 43.37 94 46s1.07 5.21 2.93 7.069C98.79 54.93 101.37 56 104 56s5.21-1.07 7.07-2.931C112.93 51.21 114 48.63 114 46s-1.07-5.21-2.93-7.07zM71.07 38.93C69.21 37.07 66.63 36 64 36s-5.21 1.069-7.07 2.93C55.07 40.79 54 43.37 54 46s1.07 5.21 2.93 7.069C58.79 54.93 61.37 56 64 56s5.21-1.07 7.07-2.931C72.93 51.21 74 48.63 74 46s-1.07-5.21-2.93-7.07zM151.07 38.93A10.058 10.058 0 0 0 144 36c-2.63 0-5.21 1.069-7.07 2.93-1.86 1.86-2.93 4.44-2.93 7.07s1.07 5.21 2.93 7.069C138.79 54.93 141.37 56 144 56s5.21-1.07 7.07-2.931C152.93 51.21 154 48.63 154 46s-1.07-5.21-2.93-7.07zM399.07 345.57c-1.86-1.87-4.44-2.93-7.07-2.93s-5.21 1.061-7.07 2.93c-1.86 1.86-2.93 4.44-2.93 7.07s1.07 5.21 2.93 7.07c1.86 1.859 4.44 2.93 7.07 2.93s5.21-1.07 7.07-2.93 2.93-4.44 2.93-7.07c0-2.64-1.07-5.21-2.93-7.07zM424 135.939c-19.851 0-36 16.149-36 36a35.798 35.798 0 0 0 6.871 21.118l-66.425 66.425a35.774 35.774 0 0 0-17.375-4.483 35.775 35.775 0 0 0-15.824 3.674l-69.359-69.359a35.774 35.774 0 0 0 4.483-17.375c0-19.851-16.149-36-36-36s-36 16.149-36 36c0 6.938 1.978 13.42 5.392 18.922l-59.053 59.052a35.773 35.773 0 0 0-17.374-4.483c-19.851 0-36 16.149-36 36s16.149 36 36 36 36-16.149 36-36c0-6.298-1.63-12.22-4.483-17.375l59.758-59.758a35.782 35.782 0 0 0 15.76 3.641c6.297 0 12.219-1.63 17.374-4.483l68.68 68.679a35.78 35.78 0 0 0-5.354 18.863c0 19.851 16.149 36 36 36s36-16.149 36-36c0-6.298-1.63-12.22-4.483-17.375l68.205-68.205A35.765 35.765 0 0 0 424 207.939c19.851 0 36-16.149 36-36s-16.149-36-36-36zM87.337 297.432c-8.822 0-16-7.178-16-16s7.178-16 16-16 16 7.178 16 16-7.178 16-16 16zm107.035-109.493c-8.822 0-16-7.178-16-16s7.178-16 16-16 16 7.178 16 16-7.178 16-16 16zm116.7 119.06c-8.822 0-16-7.178-16-16s7.178-16 16-16 16 7.178 16 16-7.178 16-16 16zM424 187.939c-8.822 0-16-7.178-16-16s7.178-16 16-16 16 7.178 16 16-7.178 16-16 16zM148.33 128.951a10.094 10.094 0 0 0-7.07-2.931c-2.64 0-5.22 1.07-7.08 2.931-1.86 1.859-2.92 4.439-2.92 7.069s1.06 5.21 2.92 7.07a10.1 10.1 0 0 0 7.08 2.93c2.63 0 5.2-1.069 7.07-2.93 1.86-1.86 2.93-4.44 2.93-7.07s-1.07-5.21-2.93-7.069zM104 126.021H56c-5.523 0-10 4.478-10 10s4.477 10 10 10h48c5.523 0 10-4.478 10-10s-4.477-10-10-10zM104 174.021H56c-5.523 0-10 4.478-10 10s4.477 10 10 10h48c5.523 0 10-4.478 10-10s-4.477-10-10-10z" fill="#ffffff" opacity="1" data-original="#000000"></path></g></svg>