<svg xmlns="http://www.w3.org/2000/svg" xmlns:xlink="http://www.w3.org/1999/xlink" viewBox="0 0 391.35 400"><defs><style>.cls-1{isolation:isolate;}.cls-2{opacity:0.15;}.cls-3{fill:#bdcefa;}.cls-4{fill:url(#Degradado_sin_nombre_4);}.cls-5{fill:url(#Degradado_sin_nombre_4-2);}.cls-6{fill:url(#Degradado_sin_nombre_4-3);}.cls-7{fill:url(#Degradado_sin_nombre_4-4);}.cls-8{fill:#e8f2fe;}.cls-9{fill:url(#Degradado_sin_nombre_3);}.cls-10{fill:#ddd;}.cls-10,.cls-20{mix-blend-mode:color-dodge;}.cls-11{fill:url(#Degradado_sin_nombre_3-2);}.cls-12{fill:#0084e9;}.cls-100,.cls-13{fill:#52a3f6;}.cls-14,.cls-51{fill:#fff;}.cls-15{fill:url(#Degradado_sin_nombre_3-3);}.cls-16{fill:url(#Degradado_sin_nombre_3-4);}.cls-17{fill:url(#Degradado_sin_nombre_3-5);}.cls-18{fill:url(#Degradado_sin_nombre_3-6);}.cls-19{fill:url(#Degradado_sin_nombre_3-7);}.cls-20{fill:#c9c9c9;}.cls-21{fill:url(#Degradado_sin_nombre_3-8);}.cls-22{fill:url(#Degradado_sin_nombre_3-9);}.cls-23{fill:url(#Degradado_sin_nombre_3-10);}.cls-24{fill:#9ce3f0;}.cls-25{fill:#39c2d1;}.cls-26{fill:#20a8af;}.cls-27{fill:#ff9100;}.cls-28{fill:#d87600;}.cls-29{fill:#bc6200;}.cls-30{fill:#ffec00;}.cls-31{fill:#d6c100;}.cls-32{fill:#938100;}.cls-33{fill:url(#Degradado_sin_nombre_3-11);}.cls-34{fill:#76b5ce;}.cls-35{fill:url(#Degradado_sin_nombre_3-12);}.cls-36{fill:#f9ab83;}.cls-37{fill:#010400;}.cls-38{fill:#484968;}.cls-39{fill:#f1ac85;}.cls-40{fill:#e28c66;}.cls-41{fill:#54a5f8;}.cls-42{fill:#dd936f;}.cls-43{fill:#3f4893;}.cls-44{fill:url(#Degradado_sin_nombre_188);}.cls-45{fill:url(#Degradado_sin_nombre_3-13);}.cls-46{fill:url(#Degradado_sin_nombre_3-14);}.cls-47{fill:url(#Degradado_sin_nombre_3-15);}.cls-48{fill:#b8d0f6;}.cls-49{fill:#99b6e0;}.cls-50{fill:#e4f2ff;}.cls-51,.cls-52{mix-blend-mode:overlay;}.cls-53{fill:url(#Degradado_sin_nombre_5);}.cls-54{fill:url(#Degradado_sin_nombre_5-2);}.cls-55{fill:url(#Degradado_sin_nombre_5-3);}.cls-56{fill:url(#Degradado_sin_nombre_6);}.cls-57{fill:url(#Degradado_sin_nombre_6-2);}.cls-58{fill:url(#Degradado_sin_nombre_6-3);}.cls-59{fill:url(#Degradado_sin_nombre_6-4);}.cls-60{fill:url(#Degradado_sin_nombre_6-5);}.cls-61{fill:url(#Degradado_sin_nombre_6-6);}.cls-62{fill:url(#Degradado_sin_nombre_5-4);}.cls-63{fill:url(#Degradado_sin_nombre_5-5);}.cls-64{fill:url(#Degradado_sin_nombre_5-6);}.cls-65{fill:url(#Degradado_sin_nombre_5-7);}.cls-66{fill:url(#Degradado_sin_nombre_5-8);}.cls-67{fill:url(#Degradado_sin_nombre_5-9);}.cls-68{fill:url(#Degradado_sin_nombre_4-5);}.cls-69{fill:url(#Degradado_sin_nombre_3-16);}.cls-70{fill:url(#Degradado_sin_nombre_3-17);}.cls-71{fill:url(#Degradado_sin_nombre_4-6);}.cls-72{fill:url(#Degradado_sin_nombre_3-18);}.cls-73{fill:url(#Degradado_sin_nombre_3-19);}.cls-74{fill:url(#Degradado_sin_nombre_3-20);}.cls-75{fill:url(#Degradado_sin_nombre_3-21);}.cls-76{fill:url(#Degradado_sin_nombre_3-22);}.cls-77{fill:url(#Degradado_sin_nombre_3-23);}.cls-78{fill:url(#Degradado_sin_nombre_3-24);}.cls-79{fill:#007dc9;}.cls-80{fill:#2d0d60;}.cls-81{fill:url(#Degradado_sin_nombre_2);}.cls-82{fill:#a29afb;}.cls-83{fill:#ffffeb;}.cls-84{fill:#943bbb;}.cls-85{fill:#fcc4b7;}.cls-86{fill:#293677;}.cls-87{fill:#55d1ff;}.cls-88{fill:#5258a6;}.cls-89{fill:#e58800;}.cls-100,.cls-101,.cls-102,.cls-89{fill-rule:evenodd;}.cls-90{fill:#1c1c38;}.cls-91{fill:#fcfdff;}.cls-92{fill:#0382ff;}.cls-101,.cls-93{fill:#bbbeb5;}.cls-102,.cls-94{fill:#eaeef1;}.cls-95{fill:#d13985;}.cls-96{fill:#46466c;}.cls-97{fill:#2d2d4f;}.cls-98{fill:#ed549c;}.cls-99{fill:#e5a89c;}</style><linearGradient id="Degradado_sin_nombre_4" x1="54.65" y1="42.36" x2="11.88" y2="133.7" gradientUnits="userSpaceOnUse"><stop offset="0" stop-color="#e4f2ff"/><stop offset="0.2" stop-color="#dceafe" stop-opacity="0.78"/><stop offset="0.6" stop-color="#cbdbfc" stop-opacity="0.37"/><stop offset="0.87" stop-color="#c1d2fb" stop-opacity="0.1"/><stop offset="1" stop-color="#bdcefa" stop-opacity="0"/></linearGradient><linearGradient id="Degradado_sin_nombre_4-2" x1="83.72" y1="41.64" x2="116.21" y2="173.59" xlink:href="#Degradado_sin_nombre_4"/><linearGradient id="Degradado_sin_nombre_4-3" x1="161.22" y1="-22.91" x2="159.77" y2="51.76" xlink:href="#Degradado_sin_nombre_4"/><linearGradient id="Degradado_sin_nombre_4-4" x1="55.59" y1="130.22" x2="42.54" y2="226.63" xlink:href="#Degradado_sin_nombre_4"/><linearGradient id="Degradado_sin_nombre_3" x1="351.94" y1="93.44" x2="287.24" y2="221.92" gradientUnits="userSpaceOnUse"><stop offset="0" stop-color="#e4f2ff"/><stop offset="0.06" stop-color="#e1efff"/><stop offset="0.65" stop-color="#c7d7fb"/><stop offset="1" stop-color="#bdcefa"/></linearGradient><linearGradient id="Degradado_sin_nombre_3-2" x1="365.58" y1="29.68" x2="261.1" y2="185.2" xlink:href="#Degradado_sin_nombre_3"/><linearGradient id="Degradado_sin_nombre_3-3" x1="342.01" y1="284.14" x2="204.06" y2="390.53" xlink:href="#Degradado_sin_nombre_3"/><linearGradient id="Degradado_sin_nombre_3-4" x1="301.16" y1="283.26" x2="252.29" y2="327.54" xlink:href="#Degradado_sin_nombre_3"/><linearGradient id="Degradado_sin_nombre_3-5" x1="363.9" y1="326.05" x2="234.48" y2="417.4" xlink:href="#Degradado_sin_nombre_3"/><linearGradient id="Degradado_sin_nombre_3-6" x1="343.23" y1="321" x2="282.33" y2="359.51" xlink:href="#Degradado_sin_nombre_3"/><linearGradient id="Degradado_sin_nombre_3-7" x1="377.39" y1="196.11" x2="146.7" y2="373.74" xlink:href="#Degradado_sin_nombre_3"/><linearGradient id="Degradado_sin_nombre_3-8" x1="244.7" y1="324.88" x2="153.28" y2="311.96" xlink:href="#Degradado_sin_nombre_3"/><linearGradient id="Degradado_sin_nombre_3-9" x1="184.64" y1="289.52" x2="72.11" y2="400.69" xlink:href="#Degradado_sin_nombre_3"/><linearGradient id="Degradado_sin_nombre_3-10" x1="241.37" y1="330.74" x2="71.88" y2="281.53" xlink:href="#Degradado_sin_nombre_3"/><linearGradient id="Degradado_sin_nombre_3-11" x1="366.36" y1="217.46" x2="297.56" y2="219.74" xlink:href="#Degradado_sin_nombre_3"/><linearGradient id="Degradado_sin_nombre_3-12" x1="291.3" y1="187.28" x2="237.99" y2="156.98" xlink:href="#Degradado_sin_nombre_3"/><linearGradient id="Degradado_sin_nombre_188" x1="78.8" y1="288.48" x2="234.49" y2="34.02" gradientUnits="userSpaceOnUse"><stop offset="0" stop-color="#0f123b"/><stop offset="0.07" stop-color="#141754"/><stop offset="0.21" stop-color="#1b1f7a"/><stop offset="0.35" stop-color="#212599"/><stop offset="0.49" stop-color="#262ab2"/><stop offset="0.64" stop-color="#292dc3"/><stop offset="0.81" stop-color="#2b2fce"/><stop offset="1" stop-color="#2c30d1"/></linearGradient><linearGradient id="Degradado_sin_nombre_3-13" x1="202.11" y1="68.15" x2="95.04" y2="195.73" xlink:href="#Degradado_sin_nombre_3"/><linearGradient id="Degradado_sin_nombre_3-14" x1="135" y1="197.85" x2="88.85" y2="252.84" xlink:href="#Degradado_sin_nombre_3"/><linearGradient id="Degradado_sin_nombre_3-15" x1="317.4" y1="233.53" x2="152.51" y2="255.16" xlink:href="#Degradado_sin_nombre_3"/><linearGradient id="Degradado_sin_nombre_5" x1="170.26" y1="130.81" x2="200.12" y2="130.81" gradientUnits="userSpaceOnUse"><stop offset="0" stop-color="#fcfdff" stop-opacity="0"/><stop offset="0.12" stop-color="#fcfad7" stop-opacity="0.16"/><stop offset="0.37" stop-color="#fdf58c" stop-opacity="0.45"/><stop offset="0.59" stop-color="#fef150" stop-opacity="0.69"/><stop offset="0.77" stop-color="#ffee24" stop-opacity="0.86"/><stop offset="0.91" stop-color="#ffed0a" stop-opacity="0.96"/><stop offset="1" stop-color="#ffec00"/></linearGradient><linearGradient id="Degradado_sin_nombre_5-2" x1="170.26" y1="126.48" x2="200.12" y2="126.48" xlink:href="#Degradado_sin_nombre_5"/><linearGradient id="Degradado_sin_nombre_5-3" x1="170.26" y1="122.14" x2="200.12" y2="122.14" xlink:href="#Degradado_sin_nombre_5"/><linearGradient id="Degradado_sin_nombre_6" x1="179.79" y1="153.82" x2="202.51" y2="139.86" gradientUnits="userSpaceOnUse"><stop offset="0" stop-color="#fcfdff" stop-opacity="0"/><stop offset="0.12" stop-color="#fcdbe7" stop-opacity="0.16"/><stop offset="0.37" stop-color="#fd9cb8" stop-opacity="0.45"/><stop offset="0.59" stop-color="#fe6a94" stop-opacity="0.69"/><stop offset="0.77" stop-color="#ff4679" stop-opacity="0.86"/><stop offset="0.91" stop-color="#ff2f69" stop-opacity="0.96"/><stop offset="1" stop-color="#ff2763"/></linearGradient><linearGradient id="Degradado_sin_nombre_6-2" x1="177.86" y1="150.67" x2="200.58" y2="136.71" xlink:href="#Degradado_sin_nombre_6"/><linearGradient id="Degradado_sin_nombre_6-3" x1="175.92" y1="147.53" x2="198.64" y2="133.56" xlink:href="#Degradado_sin_nombre_6"/><linearGradient id="Degradado_sin_nombre_6-4" x1="179.64" y1="153.58" x2="202.36" y2="139.62" xlink:href="#Degradado_sin_nombre_6"/><linearGradient id="Degradado_sin_nombre_6-5" x1="177.71" y1="150.43" x2="200.43" y2="136.47" xlink:href="#Degradado_sin_nombre_6"/><linearGradient id="Degradado_sin_nombre_6-6" x1="175.77" y1="147.28" x2="198.49" y2="133.32" xlink:href="#Degradado_sin_nombre_6"/><linearGradient id="Degradado_sin_nombre_5-4" x1="145.73" y1="162.4" x2="120.03" y2="179.83" xlink:href="#Degradado_sin_nombre_5"/><linearGradient id="Degradado_sin_nombre_5-5" x1="147.75" y1="165.37" x2="122.05" y2="182.8" xlink:href="#Degradado_sin_nombre_5"/><linearGradient id="Degradado_sin_nombre_5-6" x1="149.76" y1="168.35" x2="124.06" y2="185.77" xlink:href="#Degradado_sin_nombre_5"/><linearGradient id="Degradado_sin_nombre_5-7" x1="146.15" y1="163.02" x2="120.45" y2="180.44" xlink:href="#Degradado_sin_nombre_5"/><linearGradient id="Degradado_sin_nombre_5-8" x1="148.16" y1="165.99" x2="122.46" y2="183.41" xlink:href="#Degradado_sin_nombre_5"/><linearGradient id="Degradado_sin_nombre_5-9" x1="150.18" y1="168.96" x2="124.48" y2="186.38" xlink:href="#Degradado_sin_nombre_5"/><linearGradient id="Degradado_sin_nombre_4-5" x1="133.47" y1="128.49" x2="64.14" y2="250.44" xlink:href="#Degradado_sin_nombre_4"/><linearGradient id="Degradado_sin_nombre_3-16" x1="138.83" y1="145.4" x2="89.75" y2="229.62" xlink:href="#Degradado_sin_nombre_3"/><linearGradient id="Degradado_sin_nombre_3-17" x1="125.54" y1="137.66" x2="76.46" y2="221.88" gradientTransform="translate(210.58 10.1) rotate(60)" xlink:href="#Degradado_sin_nombre_3"/><linearGradient id="Degradado_sin_nombre_4-6" x1="255.19" y1="43.71" x2="198.89" y2="160.86" xlink:href="#Degradado_sin_nombre_4"/><linearGradient id="Degradado_sin_nombre_3-18" x1="266.45" y1="88.65" x2="191.36" y2="154.95" xlink:href="#Degradado_sin_nombre_3"/><linearGradient id="Degradado_sin_nombre_3-19" x1="262.05" y1="83.66" x2="186.96" y2="149.96" xlink:href="#Degradado_sin_nombre_3"/><linearGradient id="Degradado_sin_nombre_3-20" x1="250.5" y1="70.58" x2="175.41" y2="136.88" xlink:href="#Degradado_sin_nombre_3"/><linearGradient id="Degradado_sin_nombre_3-21" x1="253.53" y1="74.01" x2="178.44" y2="140.31" xlink:href="#Degradado_sin_nombre_3"/><linearGradient id="Degradado_sin_nombre_3-22" x1="256.56" y1="77.44" x2="181.47" y2="143.74" xlink:href="#Degradado_sin_nombre_3"/><linearGradient id="Degradado_sin_nombre_3-23" x1="84.01" y1="315.46" x2="8.01" y2="468.66" xlink:href="#Degradado_sin_nombre_3"/><linearGradient id="Degradado_sin_nombre_3-24" x1="74.76" y1="285.81" x2="5.91" y2="383.35" xlink:href="#Degradado_sin_nombre_3"/><linearGradient id="Degradado_sin_nombre_2" x1="319.56" y1="257.67" x2="302" y2="250.82" gradientUnits="userSpaceOnUse"><stop offset="0" stop-color="#e8e9ff"/><stop offset="1" stop-color="#c0c0f6"/></linearGradient></defs><g class="cls-1"><g id="Layer_2" data-name="Layer 2"><g id="Layer_1-2" data-name="Layer 1"><g class="cls-2"><path class="cls-3" d="M365.52,353.34,305,387.26c-2.68,1.55-7.41,1.36-10.51-.43l-20.15-12c-3.1-1.79-3.44-4.52-.75-6.07l60.34-34.61c2.68-1.55,7.41-1.35,10.51.44l20.38,12.7C367.86,349.06,368.2,351.79,365.52,353.34Z"/><path class="cls-3" d="M340.3,323.69l-60.57,33.93c-2.68,1.55-7.41,1.35-10.51-.43l-20.15-12c-3.09-1.79-3.43-4.52-.75-6.07l60.34-34.61c2.68-1.55,7.41-1.35,10.51.44l20.38,12.7C342.65,319.41,343,322.15,340.3,323.69Z"/><path class="cls-3" d="M354.8,273.64,172,375.59c-8.1,4.68-22.37,4.08-31.72-1.31L33.83,312.8c-9.35-5.4-10.38-13.64-2.28-18.31l182.77-102c8.1-4.67,22.37-4.08,31.72,1.32l106.48,61.48C361.87,260.72,362.9,269,354.8,273.64Z"/></g><path class="cls-4" d="M2.16,136.68A2.17,2.17,0,0,1,0,134.52V88.82A2.15,2.15,0,0,1,1.08,87L56,55.24A2.12,2.12,0,0,1,57.08,55a2.17,2.17,0,0,1,2.16,2.16v45.7a2.15,2.15,0,0,1-1.08,1.86L3.23,136.39A2.15,2.15,0,0,1,2.16,136.68Z"/><path class="cls-5" d="M43.2,203a4.63,4.63,0,0,1-4.62-4.62V100.66a4.62,4.62,0,0,1,2.3-4L158.37,28.84a4.59,4.59,0,0,1,6.91,4v97.74a4.62,4.62,0,0,1-2.3,4L45.5,202.39A4.55,4.55,0,0,1,43.2,203Z"/><path class="cls-6" d="M135.73,72.43a1.92,1.92,0,0,1-1.91-1.92V30a1.94,1.94,0,0,1,1-1.66L183.45.26a1.91,1.91,0,0,1,2.87,1.65v40.5a1.91,1.91,0,0,1-1,1.65L136.68,72.17A1.86,1.86,0,0,1,135.73,72.43Z"/><path class="cls-7" d="M22.2,233.37a1.92,1.92,0,0,1-1.92-1.91V191a1.91,1.91,0,0,1,1-1.65L69.91,161.2a1.91,1.91,0,0,1,2.87,1.66v40.49a1.93,1.93,0,0,1-1,1.66l-48.67,28.1A1.81,1.81,0,0,1,22.2,233.37Z"/><ellipse class="cls-3" cx="154.31" cy="80.57" rx="4.37" ry="2.52" transform="translate(5.7 171.23) rotate(-58.95)"/><path class="cls-3" d="M168.4,72.44a6.81,6.81,0,0,1-3.12,5.33c-1.72,1-3.12.22-3.12-1.73a6.84,6.84,0,0,1,3.12-5.33C167,69.72,168.4,70.49,168.4,72.44Z"/><path class="cls-3" d="M179.37,66.11a6.86,6.86,0,0,1-3.12,5.33c-1.72,1-3.12.22-3.12-1.73a6.83,6.83,0,0,1,3.12-5.33C178,63.38,179.37,64.16,179.37,66.11Z"/><path class="cls-3" d="M77.45,131.25a27.08,27.08,0,0,1-7.06,5.68c-6.4,3.69-12,1.64-12-7.08,0-9.08,5.71-20.26,14.43-25.29,6.78-3.92,11.64-1.34,11.64,6.14,0,6.5-3.16,12.42-7.33,14.83-1.81,1-3.12.73-3.31-1.51l-.08,0a12.38,12.38,0,0,1-5,6.3c-2.51,1.45-4.32.36-4.32-3.29a19.35,19.35,0,0,1,9-15.59A10.09,10.09,0,0,1,78,110l-1.16,8.9c-.38,2.85-.11,3.9,1,3.32,1.65-.92,3.74-4.57,3.74-9.69,0-5.78-3.24-8.41-9.22-5s-11.07,11.73-11.07,20.24c0,7.43,4.13,9.28,9.88,6a22.38,22.38,0,0,0,5.59-4.65ZM74,114.84a5.19,5.19,0,0,0-1.2.52c-2.54,1.47-4.55,5.52-4.55,8.94,0,1.7.66,2.39,1.93,1.65,1.43-.82,2.93-3.78,3.28-6.56Z"/><path class="cls-3" d="M94.16,75.19l13.47,3.74c.42.11,1.06-.26,1.48-.86l13.47-19.25Z"/><path class="cls-3" d="M103.73,79.16,94.35,94.68a1.43,1.43,0,0,1-.25-.85V76.52Z"/><path class="cls-3" d="M112.14,75l9.43,4.73a3.21,3.21,0,0,1-.88.74L96.05,94.73a2,2,0,0,1-.81.28l9.42-15.62,3.71,1Z"/><path class="cls-3" d="M122.64,60V77.35a3.16,3.16,0,0,1-.23,1.05l-9.32-4.69Z"/><path class="cls-3" d="M217,83.35a.23.23,0,0,1-.23-.23v-67L125.57,68.88a.24.24,0,0,1-.31-.08.24.24,0,0,1,.08-.32L217.2,15.37V83.12A.23.23,0,0,1,217,83.35Z"/><path class="cls-3" d="M223.07,83.63a.43.43,0,0,1-.45-.43v0a.45.45,0,0,1,.45-.45.46.46,0,0,1,.46.45A.48.48,0,0,1,223.07,83.63Z"/><path class="cls-3" d="M223.07,80.12a.42.42,0,0,1-.45-.41v-.09a.45.45,0,0,1,.45-.45.46.46,0,0,1,.46.45A.49.49,0,0,1,223.07,80.12Zm0-3.53a.42.42,0,0,1-.45-.41v-.09a.45.45,0,0,1,.45-.45.46.46,0,0,1,.46.45A.5.5,0,0,1,223.07,76.59Zm0-3.53a.42.42,0,0,1-.45-.41v-.09a.45.45,0,0,1,.45-.45.46.46,0,0,1,.46.45A.5.5,0,0,1,223.07,73.06Zm0-3.53a.42.42,0,0,1-.45-.41V69a.45.45,0,0,1,.45-.45.46.46,0,0,1,.46.45A.5.5,0,0,1,223.07,69.53Zm0-3.53a.42.42,0,0,1-.45-.41V65.5a.45.45,0,0,1,.45-.45.46.46,0,0,1,.46.45A.5.5,0,0,1,223.07,66Zm0-3.53a.42.42,0,0,1-.45-.41V62a.45.45,0,0,1,.45-.45.46.46,0,0,1,.46.45A.5.5,0,0,1,223.07,62.47Zm0-3.53a.42.42,0,0,1-.45-.41v-.09a.46.46,0,0,1,.45-.46.47.47,0,0,1,.46.46A.5.5,0,0,1,223.07,58.94Z"/><path class="cls-3" d="M223.07,55.43a.45.45,0,0,1-.38-.19l0-.06a.44.44,0,0,1,.16-.61.52.52,0,0,1,.47,0,.46.46,0,0,1,.25.38A.48.48,0,0,1,223.07,55.43Z"/><path class="cls-3" d="M92.71,128.18a.45.45,0,0,1-.23-.85l.08,0a.45.45,0,0,1,.45.79l-.08,0A.59.59,0,0,1,92.71,128.18ZM96,126.36a.43.43,0,0,1-.39-.23.45.45,0,0,1,.17-.62l.08,0a.45.45,0,0,1,.62.17.46.46,0,0,1-.17.62l-.08,0A.46.46,0,0,1,96,126.36Zm3.26-1.81a.47.47,0,0,1-.4-.24.46.46,0,0,1,.18-.62.51.51,0,0,1,.66.15.42.42,0,0,1-.14.6l-.07,0A.49.49,0,0,1,99.22,124.55Zm3.26-1.82a.47.47,0,0,1-.4-.24.46.46,0,0,1,.18-.62l.08,0a.45.45,0,1,1,.44.79l-.08,0A.43.43,0,0,1,102.48,122.73Zm3.26-1.82a.46.46,0,0,1-.22-.86l.08,0a.46.46,0,0,1,.44.8l-.08,0A.46.46,0,0,1,105.74,120.91Zm3.26-1.82a.45.45,0,0,1-.4-.23.46.46,0,0,1,.17-.62.49.49,0,0,1,.66.15.42.42,0,0,1-.13.6l-.08,0A.46.46,0,0,1,109,119.09Zm3.25-1.82a.45.45,0,0,1-.22-.85.49.49,0,0,1,.66.15.42.42,0,0,1-.13.6l-.08,0A.46.46,0,0,1,112.25,117.27Zm3.26-1.82a.45.45,0,0,1-.22-.85l.08,0a.46.46,0,0,1,.44.8l-.08,0A.43.43,0,0,1,115.51,115.45Zm3.26-1.82a.45.45,0,0,1-.22-.85l.08,0a.46.46,0,1,1,.44.8l-.08,0A.43.43,0,0,1,118.77,113.63Zm3.26-1.82a.45.45,0,0,1-.4-.23.46.46,0,0,1,.18-.62.5.5,0,0,1,.66.15.42.42,0,0,1-.14.6l-.08.05A.44.44,0,0,1,122,111.81Zm3.26-1.82a.45.45,0,0,1-.4-.23.46.46,0,0,1,.18-.62.5.5,0,0,1,.66.16.41.41,0,0,1-.14.59l-.08,0A.44.44,0,0,1,125.29,110Zm3.26-1.81a.46.46,0,0,1-.23-.86.5.5,0,0,1,.66.16.42.42,0,0,1-.13.59l-.08.05A.46.46,0,0,1,128.55,108.18Zm3.25-1.82a.47.47,0,0,1-.4-.24.46.46,0,0,1,.18-.62.5.5,0,0,1,.66.16.43.43,0,0,1-.14.6l-.08,0A.43.43,0,0,1,131.8,106.36Zm3.26-1.82a.47.47,0,0,1-.4-.24.46.46,0,0,1,.18-.62.5.5,0,0,1,.66.16.43.43,0,0,1-.14.6l-.08,0A.43.43,0,0,1,135.06,104.54Zm3.26-1.82a.46.46,0,0,1-.22-.86.5.5,0,0,1,.66.16.42.42,0,0,1-.14.6l-.08,0A.46.46,0,0,1,138.32,102.72Zm3.26-1.82a.45.45,0,0,1-.4-.23.46.46,0,0,1,.18-.62l.08,0a.46.46,0,0,1,.44.8l-.08,0A.46.46,0,0,1,141.58,100.9Zm3.26-1.82a.45.45,0,0,1-.4-.23.46.46,0,0,1,.17-.62.49.49,0,0,1,.66.15.41.41,0,0,1-.13.6l-.08,0A.46.46,0,0,1,144.84,99.08Zm3.25-1.82a.43.43,0,0,1-.39-.23.45.45,0,0,1,.17-.62l.08,0a.46.46,0,0,1,.62.18.46.46,0,0,1-.17.62l-.08,0A.46.46,0,0,1,148.09,97.26Zm3.26-1.82a.45.45,0,0,1-.22-.85l.08,0a.45.45,0,0,1,.62.17.46.46,0,0,1-.18.62l-.08,0A.42.42,0,0,1,151.35,95.44Zm3.26-1.82a.45.45,0,0,1-.22-.85.5.5,0,0,1,.66.15.42.42,0,0,1-.14.6l-.08,0A.42.42,0,0,1,154.61,93.62Zm3.26-1.81a.46.46,0,0,1-.4-.24.47.47,0,0,1,.17-.62.52.52,0,0,1,.67.15.42.42,0,0,1-.14.6l-.08,0A.46.46,0,0,1,157.87,91.81ZM161.13,90a.46.46,0,0,1-.23-.86l.08,0a.46.46,0,0,1,.62.17.45.45,0,0,1-.17.62l-.08.05A.46.46,0,0,1,161.13,90Zm3.25-1.82a.46.46,0,0,1-.22-.86l.08,0a.46.46,0,0,1,.45.8l-.08,0A.46.46,0,0,1,164.38,88.17Zm3.26-1.82a.43.43,0,0,1-.39-.23.45.45,0,0,1,.17-.62.49.49,0,0,1,.66.15.43.43,0,0,1-.13.6l-.08,0A.46.46,0,0,1,167.64,86.35Zm3.26-1.82a.45.45,0,0,1-.22-.85.49.49,0,0,1,.66.15.43.43,0,0,1-.14.6l-.08,0A.43.43,0,0,1,170.9,84.53Zm3.26-1.82a.45.45,0,0,1-.4-.23.46.46,0,0,1,.18-.62l.08,0a.46.46,0,0,1,.44.8l-.08,0A.46.46,0,0,1,174.16,82.71Zm3.26-1.82a.45.45,0,0,1-.4-.23.46.46,0,0,1,.18-.62l.07-.05a.46.46,0,0,1,.62.18.45.45,0,0,1-.17.62l-.08,0A.46.46,0,0,1,177.42,80.89Zm3.26-1.82a.45.45,0,0,1-.23-.85.5.5,0,0,1,.66.15.41.41,0,0,1-.13.6l-.08,0A.59.59,0,0,1,180.68,79.07Zm3.25-1.82a.43.43,0,0,1-.39-.23.45.45,0,0,1,.17-.62.5.5,0,0,1,.66.15.42.42,0,0,1-.13.6l-.08,0A.46.46,0,0,1,183.93,77.25Zm3.26-1.81a.47.47,0,0,1-.4-.24.46.46,0,0,1,.18-.62.5.5,0,0,1,.66.16.41.41,0,0,1-.14.59l-.08,0A.43.43,0,0,1,187.19,75.44Zm3.26-1.82a.46.46,0,0,1-.22-.86l.08,0a.46.46,0,0,1,.44.8l-.08,0A.46.46,0,0,1,190.45,73.62Zm3.26-1.82a.46.46,0,0,1-.22-.86.5.5,0,0,1,.66.16.43.43,0,0,1-.14.6l-.08,0A.46.46,0,0,1,193.71,71.8ZM197,70a.46.46,0,0,1-.4-.24.44.44,0,0,1,.17-.61.49.49,0,0,1,.66.15.41.41,0,0,1-.13.6l-.08,0A.46.46,0,0,1,197,70Zm3.25-1.82a.45.45,0,0,1-.22-.85.49.49,0,0,1,.66.15.42.42,0,0,1-.13.6l-.08,0A.46.46,0,0,1,200.22,68.16Zm3.26-1.82a.45.45,0,0,1-.22-.85.5.5,0,0,1,.66.15.42.42,0,0,1-.14.6l-.08,0A.43.43,0,0,1,203.48,66.34Zm3.26-1.82a.45.45,0,0,1-.22-.85l.08-.05a.46.46,0,1,1,.44.8l-.08,0A.54.54,0,0,1,206.74,64.52ZM210,62.7a.45.45,0,0,1-.22-.85.5.5,0,0,1,.66.15.42.42,0,0,1-.14.6l-.08,0A.44.44,0,0,1,210,62.7Zm3.26-1.81A.46.46,0,0,1,213,60a.51.51,0,0,1,.66.15.41.41,0,0,1-.13.6l-.08,0A.46.46,0,0,1,213.26,60.89Zm3.25-1.82a.46.46,0,0,1-.39-.24.45.45,0,0,1,.17-.62l.08,0a.46.46,0,0,1,.62.17.45.45,0,0,1-.17.62l-.08,0A.46.46,0,0,1,216.51,59.07Zm3.26-1.82a.44.44,0,0,1-.39-.24.45.45,0,0,1,.17-.62.5.5,0,0,1,.66.16.42.42,0,0,1-.13.59l-.08,0A.46.46,0,0,1,219.77,57.25Z"/><path class="cls-3" d="M89.49,130a.44.44,0,0,1-.46-.43.54.54,0,0,1,.23-.44.47.47,0,0,1,.64.16.42.42,0,0,1-.1.57A.41.41,0,0,1,89.49,130Z"/><path class="cls-3" d="M89.49,157.12a.46.46,0,0,1-.46-.45v-.1a.46.46,0,0,1,.46-.45.45.45,0,0,1,.45.45v.1A.45.45,0,0,1,89.49,157.12Zm0-3.87a.46.46,0,0,1-.46-.45v-.1a.46.46,0,0,1,.46-.45.45.45,0,0,1,.45.45v.1A.45.45,0,0,1,89.49,153.25Zm0-3.87a.46.46,0,0,1-.46-.45v-.1a.46.46,0,0,1,.46-.45.45.45,0,0,1,.45.45v.1A.45.45,0,0,1,89.49,149.38Zm0-3.87a.46.46,0,0,1-.46-.45V145a.46.46,0,0,1,.46-.45.45.45,0,0,1,.45.45v.1A.45.45,0,0,1,89.49,145.51Zm0-3.87a.46.46,0,0,1-.46-.46v-.09a.47.47,0,0,1,.46-.46.46.46,0,0,1,.45.46v.09A.45.45,0,0,1,89.49,141.64Zm0-3.87a.47.47,0,0,1-.46-.46v-.09a.47.47,0,0,1,.46-.46.46.46,0,0,1,.45.46v.09A.46.46,0,0,1,89.49,137.77Zm0-3.87a.47.47,0,0,1-.46-.46v-.09a.47.47,0,0,1,.46-.46.46.46,0,0,1,.45.46v.09A.46.46,0,0,1,89.49,133.9Z"/><path class="cls-3" d="M89.49,161a.47.47,0,0,1-.46-.46.48.48,0,0,1,.46-.48.43.43,0,0,1,.45.44v0A.46.46,0,0,1,89.49,161Z"/><path class="cls-3" d="M32.41,178.94a.23.23,0,0,1-.23-.23V142.29l.12-.06,21.39-11.32a.22.22,0,0,1,.3.09.23.23,0,0,1-.09.31L32.63,142.57v36.14A.22.22,0,0,1,32.41,178.94Z"/><path class="cls-3" d="M47.79,237.52a.42.42,0,0,1-.46-.41V237a.47.47,0,0,1,.46-.46.46.46,0,0,1,.45.46A.49.49,0,0,1,47.79,237.52Zm0-3.69a.46.46,0,0,1-.46-.46v-.09a.46.46,0,0,1,.46-.45.45.45,0,0,1,.45.45v.09A.45.45,0,0,1,47.79,233.83Zm0-3.78a.42.42,0,0,1-.46-.41v-.09a.47.47,0,0,1,.46-.46.46.46,0,0,1,.45.46A.49.49,0,0,1,47.79,230.05Zm0-3.69a.47.47,0,0,1-.46-.46v-.09a.46.46,0,0,1,.46-.45.45.45,0,0,1,.45.45v.09A.46.46,0,0,1,47.79,226.36Zm0-3.78a.42.42,0,0,1-.46-.41v-.09a.46.46,0,0,1,.46-.46.45.45,0,0,1,.45.46A.49.49,0,0,1,47.79,222.58Zm0-3.74a.42.42,0,0,1-.46-.41v-.09a.47.47,0,0,1,.46-.46.46.46,0,0,1,.45.46A.49.49,0,0,1,47.79,218.84Zm0-3.69a.46.46,0,0,1-.46-.46v-.09a.46.46,0,0,1,.46-.45.45.45,0,0,1,.45.45v.09A.45.45,0,0,1,47.79,215.15Zm0-3.78a.42.42,0,0,1-.46-.41v-.09a.47.47,0,0,1,.46-.46.46.46,0,0,1,.45.46A.49.49,0,0,1,47.79,211.37Zm0-3.69a.47.47,0,0,1-.46-.46v-.09a.47.47,0,0,1,.46-.46.46.46,0,0,1,.45.46v.09A.46.46,0,0,1,47.79,207.68Zm0-3.78a.42.42,0,0,1-.46-.41v-.1a.46.46,0,0,1,.46-.45.45.45,0,0,1,.45.45A.5.5,0,0,1,47.79,203.9Zm0-3.69a.47.47,0,0,1-.46-.46v-.09a.47.47,0,0,1,.46-.46.46.46,0,0,1,.45.46v.09A.46.46,0,0,1,47.79,200.21Zm0-3.74a.46.46,0,0,1-.46-.46v-.09a.46.46,0,0,1,.46-.45.45.45,0,0,1,.45.45V196A.45.45,0,0,1,47.79,196.47Zm0-3.78a.42.42,0,0,1-.46-.41v-.09a.46.46,0,0,1,.46-.46.45.45,0,0,1,.45.46A.49.49,0,0,1,47.79,192.69Zm0-3.69a.47.47,0,0,1-.46-.46v-.09a.46.46,0,0,1,.46-.45.45.45,0,0,1,.45.45v.09A.46.46,0,0,1,47.79,189Zm0-3.74a.46.46,0,0,1-.46-.45v-.1a.46.46,0,0,1,.46-.45.45.45,0,0,1,.45.45v.1A.45.45,0,0,1,47.79,185.26Zm0-3.73a.47.47,0,0,1-.46-.46V181a.47.47,0,0,1,.46-.46.46.46,0,0,1,.45.46v.09A.46.46,0,0,1,47.79,181.53Zm0-3.74a.46.46,0,0,1-.46-.46v-.09a.46.46,0,0,1,.46-.45.45.45,0,0,1,.45.45v.09A.45.45,0,0,1,47.79,177.79Zm0-3.78a.42.42,0,0,1-.46-.41v-.09a.46.46,0,0,1,.46-.46.45.45,0,0,1,.45.46A.49.49,0,0,1,47.79,174Zm0-3.69a.47.47,0,0,1-.46-.46v-.09a.47.47,0,0,1,.46-.46.46.46,0,0,1,.45.46v.09A.46.46,0,0,1,47.79,170.32Zm0-3.74a.46.46,0,0,1-.46-.45V166a.46.46,0,0,1,.46-.45.45.45,0,0,1,.45.45v.1A.45.45,0,0,1,47.79,166.58Zm0-3.73a.47.47,0,0,1-.46-.46v-.09a.47.47,0,0,1,.46-.46.46.46,0,0,1,.45.46v.09A.46.46,0,0,1,47.79,162.85Zm0-3.74a.46.46,0,0,1-.46-.46v-.09a.46.46,0,0,1,.46-.45.45.45,0,0,1,.45.45v.09A.45.45,0,0,1,47.79,159.11Zm0-3.78a.42.42,0,0,1-.46-.41v-.09a.46.46,0,0,1,.46-.46.45.45,0,0,1,.45.46A.49.49,0,0,1,47.79,155.33Zm0-3.69a.47.47,0,0,1-.46-.46v-.09a.47.47,0,0,1,.46-.46.46.46,0,0,1,.45.46v.09A.46.46,0,0,1,47.79,151.64Zm0-3.74a.46.46,0,0,1-.46-.45v-.1a.46.46,0,0,1,.46-.45.45.45,0,0,1,.45.45v.1A.45.45,0,0,1,47.79,147.9Zm0-3.74a.46.46,0,0,1-.46-.45v-.09a.47.47,0,0,1,.46-.46.46.46,0,0,1,.45.46v.09A.45.45,0,0,1,47.79,144.16Zm0-3.73a.47.47,0,0,1-.46-.46v-.09a.46.46,0,0,1,.46-.45.45.45,0,0,1,.45.45V140A.46.46,0,0,1,47.79,140.43Zm0-3.78a.42.42,0,0,1-.46-.41v-.09a.46.46,0,0,1,.46-.46.45.45,0,0,1,.45.46A.49.49,0,0,1,47.79,136.65Zm0-3.69a.47.47,0,0,1-.46-.46v-.09a.47.47,0,0,1,.46-.46.46.46,0,0,1,.45.46v.09A.46.46,0,0,1,47.79,133Zm0-3.74a.46.46,0,0,1-.46-.45v-.1a.46.46,0,0,1,.46-.45.45.45,0,0,1,.45.45v.1A.45.45,0,0,1,47.79,129.22Zm0-3.74a.46.46,0,0,1-.46-.45v-.09a.47.47,0,0,1,.46-.46.46.46,0,0,1,.45.46V125A.45.45,0,0,1,47.79,125.48Zm0-3.73a.47.47,0,0,1-.46-.46v-.09a.46.46,0,0,1,.46-.45.45.45,0,0,1,.45.45v.09A.46.46,0,0,1,47.79,121.75Zm0-3.78a.42.42,0,0,1-.46-.41v-.09a.46.46,0,0,1,.46-.46.45.45,0,0,1,.45.46A.49.49,0,0,1,47.79,118Zm0-3.69a.47.47,0,0,1-.46-.46v-.09a.47.47,0,0,1,.46-.46.46.46,0,0,1,.45.46v.09A.46.46,0,0,1,47.79,114.28Zm0-3.74a.46.46,0,0,1-.46-.46V110a.46.46,0,0,1,.46-.45.45.45,0,0,1,.45.45v.09A.45.45,0,0,1,47.79,110.54Zm0-3.74a.46.46,0,0,1-.46-.45v-.09a.47.47,0,0,1,.46-.46.46.46,0,0,1,.45.46v.09A.45.45,0,0,1,47.79,106.8Zm0-3.73a.47.47,0,0,1-.46-.46v-.09a.46.46,0,0,1,.46-.45.45.45,0,0,1,.45.45v.09A.46.46,0,0,1,47.79,103.07Zm1.76-2.72a.45.45,0,0,1-.23-.85l.08,0a.45.45,0,0,1,.45.79l-.08,0A.46.46,0,0,1,49.55,100.35Zm3.29-1.89a.47.47,0,0,1-.41-.21.43.43,0,0,1,.13-.6l.08,0a.46.46,0,0,1,.63.17.47.47,0,0,1-.17.62A.58.58,0,0,1,52.84,98.46Zm3.24-1.85a.45.45,0,0,1-.4-.21.41.41,0,0,1,.13-.6l.08,0a.46.46,0,0,1,.62.18.45.45,0,0,1-.17.62A.58.58,0,0,1,56.08,96.61Zm3.2-1.81a.43.43,0,0,1-.39-.23.45.45,0,0,1,.16-.62l.08,0a.47.47,0,0,1,.63.17.46.46,0,0,1-.17.62l-.08,0A.46.46,0,0,1,59.28,94.8Zm3.29-1.89a.45.45,0,0,1-.4-.21.42.42,0,0,1,.13-.6l.08,0a.46.46,0,0,1,.62.17.45.45,0,0,1-.17.62A.48.48,0,0,1,62.57,92.91Zm3.25-1.85a.47.47,0,0,1-.41-.22.41.41,0,0,1,.14-.59l.08,0a.45.45,0,1,1,.45.79A.48.48,0,0,1,65.82,91.06ZM69,89.25a.48.48,0,0,1-.4-.23.46.46,0,0,1,.17-.62l.08-.05a.46.46,0,0,1,.62.17.45.45,0,0,1-.17.62l-.08,0A.46.46,0,0,1,69,89.25Zm3.29-1.89a.46.46,0,0,1-.4-.22.42.42,0,0,1,.13-.6l.08,0a.45.45,0,0,1,.62.17.46.46,0,0,1-.17.62A.48.48,0,0,1,72.31,87.36Zm3.25-1.85a.47.47,0,0,1-.41-.22.42.42,0,0,1,.13-.6l.08,0a.45.45,0,0,1,.45.79A.59.59,0,0,1,75.56,85.51Zm3.19-1.82a.43.43,0,0,1-.39-.23.45.45,0,0,1,.17-.62l.08,0a.45.45,0,0,1,.62.17.46.46,0,0,1-.17.62l-.08,0A.46.46,0,0,1,78.75,83.69Zm3.3-1.89a.46.46,0,0,1-.41-.21.42.42,0,0,1,.13-.6l.08,0a.45.45,0,1,1,.45.79A.54.54,0,0,1,82.05,81.8ZM85.29,80a.45.45,0,0,1-.4-.21.41.41,0,0,1,.13-.6l.08,0a.46.46,0,0,1,.45.8A.58.58,0,0,1,85.29,80Zm3.2-1.81a.46.46,0,0,1-.4-.23.46.46,0,0,1,.17-.62l.08-.05a.46.46,0,0,1,.62.17.45.45,0,0,1-.17.62l-.08,0A.43.43,0,0,1,88.49,78.14Z"/><path class="cls-3" d="M112.79,104.75a.48.48,0,0,1-.41-.21.42.42,0,0,1,.13-.6l.08,0a.46.46,0,0,1,.46.79A.48.48,0,0,1,112.79,104.75Zm-1.5-1.1a.45.45,0,0,1-.45-.45v-.09a.46.46,0,1,1,.91,0v.09A.45.45,0,0,1,111.29,103.65Zm4.73-.77a.45.45,0,0,1-.4-.21.42.42,0,0,1,.13-.6l.08,0a.46.46,0,0,1,.62.17.46.46,0,0,1-.17.62A.48.48,0,0,1,116,102.88Zm3.24-1.87a.46.46,0,0,1-.41-.21.42.42,0,0,1,.13-.6l.08,0a.46.46,0,0,1,.62.17.45.45,0,0,1-.17.62A.43.43,0,0,1,119.26,101Zm-8-1.09a.46.46,0,0,1-.45-.46v-.09a.46.46,0,1,1,.91,0v.09A.46.46,0,0,1,111.29,99.92Zm11.2-.78a.45.45,0,0,1-.4-.21.41.41,0,0,1,.13-.6l.07,0a.47.47,0,0,1,.63.17.46.46,0,0,1-.17.62A.48.48,0,0,1,122.49,99.14Zm3.19-1.83a.46.46,0,0,1-.4-.23.46.46,0,0,1,.17-.62l.08,0a.46.46,0,0,1,.62.17.45.45,0,0,1-.17.62l-.08,0A.46.46,0,0,1,125.68,97.31Zm-14.39-1.13a.45.45,0,0,1-.45-.46.49.49,0,0,1,.45-.5.42.42,0,0,1,.46.41v.09A.45.45,0,0,1,111.29,96.18ZM129,95.4a.45.45,0,0,1-.4-.21.41.41,0,0,1,.12-.6l.08,0a.46.46,0,0,1,.62.17.45.45,0,0,1-.16.62A.48.48,0,0,1,129,95.4Zm3.23-1.87a.45.45,0,0,1-.4-.21.41.41,0,0,1,.13-.6l.07,0a.47.47,0,0,1,.63.17.46.46,0,0,1-.17.62A.48.48,0,0,1,132.19,93.53Zm-20.9-1.09a.45.45,0,0,1-.45-.45V91.9a.46.46,0,1,1,.91,0V92A.45.45,0,0,1,111.29,92.44Zm24.09-.74a.46.46,0,0,1-.4-.23.46.46,0,0,1,.17-.62l.08,0a.45.45,0,0,1,.62.17.45.45,0,0,1-.16.62l-.08,0A.49.49,0,0,1,135.38,91.7Zm3.28-1.91a.45.45,0,0,1-.4-.21.42.42,0,0,1,.12-.6l.08,0a.46.46,0,1,1,.46.79A.48.48,0,0,1,138.66,89.79Zm-27.37-1.08a.46.46,0,0,1-.45-.46v-.09a.46.46,0,0,1,.91,0v.09A.46.46,0,0,1,111.29,88.71Zm30.6-.79a.45.45,0,0,1-.4-.21.42.42,0,0,1,.13-.6l.08,0a.45.45,0,1,1,.45.79A.56.56,0,0,1,141.89,87.92Zm3.19-1.83a.46.46,0,0,1-.23-.85l.08,0a.46.46,0,1,1,.46.79l-.08,0A.46.46,0,0,1,145.08,86.09Zm3.28-1.91A.46.46,0,0,1,148,84a.42.42,0,0,1,.13-.6l.08,0a.45.45,0,0,1,.62.17.46.46,0,0,1-.17.62A.59.59,0,0,1,148.36,84.18Z"/><path class="cls-8" d="M339.92,83.74l-33.08,19.1c-2.41,1.39-6.66,1.21-9.44-.39L265.68,84.13c-2.78-1.6-3.09-4.06-.67-5.45l33.07-19.09c2.41-1.4,6.66-1.22,9.44.39l31.72,18.31C342,79.9,342.33,82.35,339.92,83.74Z"/><path class="cls-9" d="M341.5,201.1V81.81h0a3,3,0,0,1-1.58,1.93l-33.08,19.1a8.52,8.52,0,0,1-4.38.92V223.91a8.52,8.52,0,0,0,4.38-.93l33.08-19.09A2.67,2.67,0,0,0,341.5,201.1Z"/><path class="cls-10" d="M297.4,102.45,265.68,84.13a4.23,4.23,0,0,1-2.26-2.67V200.75c-.24,1.2.53,2.53,2.26,3.53l31.72,18.31a11,11,0,0,0,5.06,1.32V103.76A10.87,10.87,0,0,1,297.4,102.45Z"/><path class="cls-11" d="M297.4,102.45,265.68,84.13a4.23,4.23,0,0,1-2.26-2.67V200.75c-.24,1.2.53,2.53,2.26,3.53l31.72,18.31a11,11,0,0,0,5.06,1.32V103.76A10.87,10.87,0,0,1,297.4,102.45Z"/><path class="cls-12" d="M329.94,94.9c0,6.78-3.58,10.52-8.68,10a6.45,6.45,0,0,1-3.91-1l-42.27-24.4a10.76,10.76,0,0,1-1-.68c-7.12-4.94-12.68-15.09-12.68-23.53,0-8.22,5.27-12,12.12-9.13,1-5.83,5.9-7.89,11.76-4.51a21.57,21.57,0,0,1,5.43,4.64c3.11-2.64,7.86-2.74,13.19.34,8,4.62,14.71,14.9,16.49,24.54a11.24,11.24,0,0,1,4.39,8.1C327.92,84.1,329.94,89.81,329.94,94.9Z"/><path class="cls-13" d="M333.89,74.06a11.2,11.2,0,0,0-4.38-8.1C327.72,56.32,321,46,313,41.42c-4.68-2.7-8.92-3-12-1.18l-1.3.74a21.12,21.12,0,0,0-5.33-4.54c-3.32-1.91-6.32-2.08-8.49-.81L278.21,40a7.42,7.42,0,0,0-3.42.84l-9.05,5.18c2.08-1.09,4.76-1.1,7.75.13,1-5.83,5.9-7.89,11.76-4.51a21.57,21.57,0,0,1,5.43,4.64c3.11-2.64,7.86-2.74,13.19.34,8,4.62,14.71,14.9,16.49,24.54a11.24,11.24,0,0,1,4.39,8.1c3.17,4.81,5.19,10.52,5.19,15.61,0,4.62-1.66,7.82-4.33,9.24L334.66,99c2.73-1.39,4.43-4.62,4.43-9.28C339.09,84.58,337.06,78.87,333.89,74.06Z"/><path class="cls-14" d="M280.61,73.51c0,1.67-1.17,2.34-2.61,1.51a5.78,5.78,0,0,1-2.62-4.53c0-1.66,1.17-2.34,2.62-1.51A5.79,5.79,0,0,1,280.61,73.51Z"/><path class="cls-14" d="M288.77,78.22c0,1.67-1.17,2.34-2.62,1.51a5.79,5.79,0,0,1-2.61-4.53c0-1.66,1.17-2.34,2.61-1.51A5.78,5.78,0,0,1,288.77,78.22Z"/><path class="cls-14" d="M296.93,82.93c0,1.67-1.17,2.34-2.62,1.51a5.79,5.79,0,0,1-2.61-4.53c0-1.66,1.17-2.34,2.61-1.51A5.78,5.78,0,0,1,296.93,82.93Z"/><path class="cls-14" d="M305.08,87.64c0,1.67-1.17,2.34-2.61,1.51a5.79,5.79,0,0,1-2.61-4.53c0-1.66,1.17-2.34,2.61-1.51A5.79,5.79,0,0,1,305.08,87.64Z"/><path class="cls-14" d="M313.24,92.35c0,1.67-1.17,2.34-2.61,1.51A5.78,5.78,0,0,1,308,89.33c0-1.67,1.17-2.34,2.62-1.51A5.79,5.79,0,0,1,313.24,92.35Z"/><path class="cls-8" d="M340.3,289.75l-60.57,33.92c-2.68,1.55-7.41,1.36-10.51-.43l-20.15-12c-3.09-1.79-3.43-4.52-.75-6.07l60.34-34.61c2.68-1.55,7.41-1.35,10.51.44l20.38,12.7C342.65,285.47,343,288.2,340.3,289.75Z"/><path class="cls-15" d="M342.06,293.53V287.6h0a3.32,3.32,0,0,1-1.76,2.15l-60.57,33.92a9.41,9.41,0,0,1-4.88,1v6.89a9.62,9.62,0,0,0,4.88-1l60.57-33.93A2.94,2.94,0,0,0,342.06,293.53Z"/><path class="cls-16" d="M269.22,323.24l-20.15-12a4.69,4.69,0,0,1-2.51-3v5.93c-.27,1.33.59,2.81,2.51,3.92l20.15,12a12.15,12.15,0,0,0,5.63,1.47V324.7A12.14,12.14,0,0,1,269.22,323.24Z"/><path class="cls-8" d="M365.52,327.07,305,361c-2.68,1.54-7.41,1.35-10.51-.44l-20.15-12c-3.1-1.79-3.44-4.52-.75-6.07l60.34-34.61c2.68-1.55,7.41-1.35,10.51.44L364.77,321C367.86,322.79,368.2,325.52,365.52,327.07Z"/><path class="cls-17" d="M367.28,330.86v-5.94h0a3.35,3.35,0,0,1-1.76,2.15L305,361a9.62,9.62,0,0,1-4.88,1v6.88a9.41,9.41,0,0,0,4.88-1L365.52,334A3,3,0,0,0,367.28,330.86Z"/><path class="cls-18" d="M294.44,360.56l-20.15-12a4.66,4.66,0,0,1-2.51-3v5.93c-.28,1.34.58,2.81,2.51,3.93l20.15,12a12.12,12.12,0,0,0,5.63,1.47V362A12.12,12.12,0,0,1,294.44,360.56Z"/><path class="cls-8" d="M354.8,231,175.13,334.55c-8.1,4.67-22.37,4.08-31.72-1.32l-109.58-63c-9.35-5.39-10.38-13.64-2.28-18.31L214.32,149.94c8.1-4.68,22.37-4.09,31.72,1.31l106.48,61.48C361.87,218.13,362.9,226.37,354.8,231Z"/><path class="cls-19" d="M360.11,229.51v-4.94h0c-.5,2.44-2.25,4.72-5.31,6.48L175.13,334.55c-3.89,2.24-9.22,3.24-14.73,3.11v7.81c5.51.14,10.84-.86,14.73-3.11L354.8,238.86C359,236.41,360.75,233,360.11,229.51Z"/><path class="cls-20" d="M143.41,333.23l-109.58-63c-4.46-2.57-7-5.79-7.59-9v4.95c-.82,4,1.77,8.48,7.59,11.84l109.58,63a36.56,36.56,0,0,0,17,4.42v-7.81A36.56,36.56,0,0,1,143.41,333.23Z"/><path class="cls-21" d="M143.41,333.23l-109.58-63c-4.46-2.57-7-5.79-7.59-9v4.95c-.82,4,1.77,8.48,7.59,11.84l109.58,63a36.56,36.56,0,0,0,17,4.42v-7.81A36.56,36.56,0,0,1,143.41,333.23Z"/><polygon class="cls-14" points="186.03 288.06 148.52 309.72 53.08 254.56 90.59 232.9 186.03 288.06"/><polygon class="cls-22" points="186.03 288.06 186.03 303.63 148.52 325.29 148.52 309.72 186.03 288.06"/><polygon class="cls-23" points="53.08 254.56 53.08 270.13 148.52 325.29 148.52 309.72 53.08 254.56"/><path class="cls-24" d="M108.13,249.6l-16.46,9.51a5.25,5.25,0,0,1-4.7-.2L71.18,249.8c-1.39-.8-1.54-2-.34-2.72l16.46-9.5a5.24,5.24,0,0,1,4.71.19l15.78,9.12C109.18,247.69,109.33,248.91,108.13,249.6Z"/><path class="cls-25" d="M108.92,255.89v-7.25h0a1.53,1.53,0,0,1-.79,1l-16.46,9.51a4.31,4.31,0,0,1-2.18.46v7.67a4.31,4.31,0,0,0,2.18-.46l16.46-9.5A1.34,1.34,0,0,0,108.92,255.89Z"/><path class="cls-26" d="M87,258.91,71.18,249.8a2.07,2.07,0,0,1-1.12-1.33v7.25c-.13.59.26,1.25,1.12,1.75L87,266.59a5.45,5.45,0,0,0,2.52.65v-7.67A5.34,5.34,0,0,1,87,258.91Z"/><path class="cls-27" d="M137.17,266.42l-16.47,9.51a5.25,5.25,0,0,1-4.7-.2l-15.79-9.11c-1.38-.8-1.53-2-.33-2.72l16.46-9.5a5.22,5.22,0,0,1,4.7.19l15.79,9.12C138.21,264.51,138.37,265.73,137.17,266.42Z"/><path class="cls-28" d="M138,272.71v-7.25h0a1.48,1.48,0,0,1-.78,1l-16.47,9.51a4.26,4.26,0,0,1-2.18.46v7.67a4.26,4.26,0,0,0,2.18-.46l16.47-9.5A1.33,1.33,0,0,0,138,272.71Z"/><path class="cls-29" d="M116,275.73l-15.79-9.11a2.1,2.1,0,0,1-1.12-1.33v7.25c-.12.59.26,1.25,1.12,1.75L116,283.41a5.48,5.48,0,0,0,2.52.65v-7.67A5.37,5.37,0,0,1,116,275.73Z"/><path class="cls-30" d="M166.81,283.48,150.34,293a5.22,5.22,0,0,1-4.7-.19l-15.79-9.11c-1.38-.81-1.53-2-.33-2.72l16.46-9.5a5.22,5.22,0,0,1,4.7.19l15.79,9.12C167.85,281.57,168,282.79,166.81,283.48Z"/><path class="cls-31" d="M167.59,289.77v-7.25h0a1.48,1.48,0,0,1-.78,1L150.34,293a4.16,4.16,0,0,1-2.18.47v7.67a4.26,4.26,0,0,0,2.18-.46l16.47-9.51A1.32,1.32,0,0,0,167.59,289.77Z"/><path class="cls-32" d="M145.64,292.79l-15.79-9.11a2.13,2.13,0,0,1-1.12-1.33v7.24c-.12.6.26,1.26,1.12,1.76l15.79,9.11a5.37,5.37,0,0,0,2.52.66v-7.67A5.49,5.49,0,0,1,145.64,292.79Z"/><ellipse class="cls-14" cx="322.34" cy="204" rx="25.39" ry="14.66"/><path class="cls-33" d="M340.29,214.37c-9.91,5.72-26,5.72-35.9,0-4.92-2.84-7.39-6.56-7.43-10.29v15.75c0,3.78,2.44,7.57,7.43,10.45,9.92,5.72,26,5.72,35.9,0,5-2.89,7.47-6.67,7.43-10.45V204.08C347.69,207.81,345.21,211.53,340.29,214.37Z"/><path class="cls-34" d="M322.34,192.85l15.5,9c-8.5,4.91-22.49,4.91-31,0s-8.5-13,0-17.9c4.75-2.74,11.43-4.08,18.1-3.62Z"/><path class="cls-26" d="M306.84,201.8c-4.23-2.45-6.35-5.68-6.37-8.91v9c0,3.26,2.1,6.53,6.37,9,8.51,4.91,22.5,4.91,31,0V201.8C329.34,206.71,315.35,206.71,306.84,201.8Z"/><path class="cls-24" d="M322.34,192.85l15.5,9c-8.5,4.91-22.49,4.91-31,0s-8.5-13,0-17.9c4.75-2.74,11.43-4.08,18.1-3.62Z"/><path class="cls-27" d="M322.34,183.58l2.6-12.57a30.38,30.38,0,0,1,12.9,3.62c8.51,4.91,8.51,13,0,17.9Z"/><polygon class="cls-29" points="322.34 183.58 322.34 192.85 337.84 201.8 337.84 192.53 322.34 183.58"/><path class="cls-28" d="M344.22,201.85V183.67c0,3.22-2.16,6.43-6.38,8.86v18.36C342.14,208.42,344.26,205.13,344.22,201.85Z"/><path class="cls-14" d="M270.14,178.83,234.05,158c-4.26-2.46-3.73-6.76,1.2-9.6h0c4.92-2.84,12.37-3.15,16.63-.68L288,168.54c4.26,2.46,3.73,6.76-1.2,9.6h0C281.85,181,274.4,181.29,270.14,178.83Z"/><path class="cls-35" d="M286.77,178.14c-4.92,2.85-12.37,3.15-16.63.69L234.05,158a5,5,0,0,1-2.87-4h0v10.73c0,1.53,1,3,2.87,4.08l36.09,20.83c4.26,2.46,11.71,2.16,16.63-.69,2.78-1.6,4.16-3.67,4.07-5.61V172.62C290.88,174.53,289.51,176.56,286.77,178.14Z"/><path class="cls-3" d="M249.43,154.86a7.39,7.39,0,0,1-6.7,0c-1.85-1.07-1.85-2.8,0-3.86a7.39,7.39,0,0,1,6.7,0C251.28,152.06,251.28,153.79,249.43,154.86Z"/><path class="cls-3" d="M259.89,160.9a7.39,7.39,0,0,1-6.7,0c-1.85-1.07-1.85-2.8,0-3.87a7.39,7.39,0,0,1,6.7,0C261.74,158.1,261.74,159.83,259.89,160.9Z"/><path class="cls-3" d="M270.35,166.94a7.46,7.46,0,0,1-6.7,0c-1.85-1.07-1.85-2.8,0-3.87a7.39,7.39,0,0,1,6.7,0C272.2,164.14,272.2,165.87,270.35,166.94Z"/><path class="cls-3" d="M280.8,173a7.39,7.39,0,0,1-6.7,0c-1.85-1.06-1.85-2.8,0-3.86a7.39,7.39,0,0,1,6.7,0C282.65,170.17,282.65,171.91,280.8,173Z"/><path class="cls-36" d="M255,160h0a2.31,2.31,0,0,0,2.68-1.86l2.28-12.9a2.32,2.32,0,0,0-1.87-2.68h0a2.3,2.3,0,0,0-2.68,1.87l-2.28,12.89A2.32,2.32,0,0,0,255,160Z"/><path class="cls-36" d="M244.68,160.87h0a2.32,2.32,0,0,0,2.9,1.51l8-2.33a2.31,2.31,0,0,0,2.15-2.45h0a2.31,2.31,0,0,0-2.45-2.16L246.19,158A2.32,2.32,0,0,0,244.68,160.87Z"/><path class="cls-37" d="M268.67,199.1c0,.3-.21.57-.62.83-.12.07,0-1.66-.39-1.37-.12.08-5.69,4.42-8.8,3.62a.67.67,0,0,1-.46-.67v-.7c0-.79,1.13-2,2.91-3.73,2-1.91,3.22-3.11,6.15-1.41.84.48,1.18.85,1.18,1.16Z"/><path class="cls-38" d="M261.31,197.08c-2.37,2.31-3.67,3.68-2.45,4.38s3.65-.35,6.15-2.24c2.19-1.65,5.38-1.86,2.45-3.55S263.27,195.17,261.31,197.08Z"/><path class="cls-39" d="M263.69,196l.18-21.35,7.05,2.29-1.21,3.48a25.61,25.61,0,0,1-.89,9.35s-1,2.06-.8,6.84C268,196.59,265.42,198.06,263.69,196Z"/><path class="cls-37" d="M261.86,193.5c0,.31-.21.57-.62.83-.12.08,0-1.66-.39-1.37-.12.09-5.69,4.43-8.8,3.62a.65.65,0,0,1-.46-.66v-.7c-.05-.79,1.13-2,2.91-3.73,2-1.92,3.22-3.11,6.15-1.42.84.49,1.18.85,1.18,1.16Z"/><path class="cls-38" d="M254.5,191.49c-2.37,2.31-3.67,3.67-2.45,4.38s3.65-.36,6.15-2.24c2.19-1.66,5.39-1.86,2.45-3.56S256.46,189.57,254.5,191.49Z"/><path class="cls-40" d="M256.89,190.38l.17-21.34,7.05,2.29-1.21,3.47a25.66,25.66,0,0,1-.89,9.36s-1,2.05-.8,6.84C261.21,191,258.61,192.47,256.89,190.38Z"/><path class="cls-24" d="M273.42,169.65v7.88s-9.24,3.12-17.92-7.88V162Z"/><path class="cls-41" d="M269,172.69a.63.63,0,0,1-.3.1c-1.55.12-7.11-1.09-12.68-7.37a2.89,2.89,0,0,1-.75-1.8V145.81a2.94,2.94,0,0,1,1.25-2.72l4.18-2.44a3,3,0,0,1,3,.27l5.71,3.3a9.31,9.31,0,0,1,4.19,7.26v17.91a.92.92,0,0,1-.4.86Z"/><path class="cls-42" d="M267.41,145.33a1.46,1.46,0,0,1-.86,1.22,4.6,4.6,0,0,1-4.18,0,1.46,1.46,0,0,1-.86-1.22v-3.88a1.46,1.46,0,0,1,.86-1.23,4.66,4.66,0,0,1,4.18,0,1.46,1.46,0,0,1,.86,1.23Z"/><path class="cls-36" d="M267.17,139.82c0,1,.68,1.37,1.52.88a3.35,3.35,0,0,0,1.52-2.63c0-1-.68-1.36-1.52-.88A3.36,3.36,0,0,0,267.17,139.82Z"/><path class="cls-43" d="M259.25,150.28s-7.86-7.15-3.06-19.86l3.68,13.2Z"/><circle class="cls-39" cx="264.5" cy="135.2" r="8.13" transform="translate(-24.05 64.65) rotate(-13.33)"/><path class="cls-43" d="M262.09,150.28s6.05-6.66,1.85-19l-7.53,2.59s-2.59-6.42,5.93-8.27c0,0,5.67-1.23,7.65,3.46,0,0,4.56.37,2.83,9.74C272.82,138.8,272.58,147.69,262.09,150.28Z"/><path class="cls-36" d="M267.43,165.25h0a2.32,2.32,0,0,0,2.85-1.61l3.58-13.32a2.33,2.33,0,0,0-1.61-2.85h0a2.32,2.32,0,0,0-2.85,1.61l-3.58,13.32A2.32,2.32,0,0,0,267.43,165.25Z"/><path class="cls-36" d="M254.45,165.72h0a2.32,2.32,0,0,0,2.75,1.77L268,165.31a2.33,2.33,0,0,0,2.39-2.24h0a2.33,2.33,0,0,0-2.25-2.38L256.23,163A2.33,2.33,0,0,0,254.45,165.72Z"/><path class="cls-14" d="M108.37,220.1V140.31a5.66,5.66,0,0,1,2.83-4.9L207.11,80a5.66,5.66,0,0,1,8.49,4.9v79.79a5.66,5.66,0,0,1-2.83,4.9L116.86,225A5.67,5.67,0,0,1,108.37,220.1Z"/><path class="cls-44" d="M114,223.87a3.78,3.78,0,0,1-3.77-3.77V140.31a3.76,3.76,0,0,1,1.88-3.25l95.91-55.38a3.71,3.71,0,0,1,1.87-.51,3.78,3.78,0,0,1,3.77,3.77v79.79a3.78,3.78,0,0,1-1.88,3.26l-95.91,55.37A3.65,3.65,0,0,1,114,223.87Z"/><path class="cls-45" d="M108.37,220.1V140.31a5.66,5.66,0,0,1,2.83-4.9L207.11,80a5.55,5.55,0,0,1,4.84-.38h0l-2.27-1.2a5.62,5.62,0,0,0-6.22-.38l-95.91,55.37a5.69,5.69,0,0,0-2.83,4.91v79.78a5.59,5.59,0,0,0,2.33,4.58h0l.06,0a6.13,6.13,0,0,0,1.21.65l2.54,1.38A5.6,5.6,0,0,1,108.37,220.1Z"/><path class="cls-46" d="M111.91,225.35h0Z"/><path class="cls-14" d="M116.86,234.81l69.1,39.9a5.67,5.67,0,0,0,5.66,0l95.91-55.37a5.67,5.67,0,0,0,0-9.81l-69.1-39.9a5.67,5.67,0,0,0-5.66,0L116.86,225A5.66,5.66,0,0,0,116.86,234.81Z"/><path class="cls-47" d="M287.53,219.34l-95.91,55.37a5.67,5.67,0,0,1-5.66,0l-69.1-39.9a5.61,5.61,0,0,1-2.83-4.9v5.18a5.61,5.61,0,0,0,2.83,4.9l69.1,39.9a5.67,5.67,0,0,0,5.66,0l95.91-55.37a5.59,5.59,0,0,0,2.81-4.65h0v-5.23A5.63,5.63,0,0,1,287.53,219.34Zm2.81-5.17a.13.13,0,0,1,0,.06v-.06Z"/><path class="cls-48" d="M251.78,203.69l-82.36,47.54c-3.21,1.86-8.82,1.63-12.53-.52L132.1,236.4c-3.71-2.14-4.11-5.38-.9-7.24l82.35-47.54c3.21-1.86,8.83-1.62,12.54.52l24.79,14.31C254.59,198.59,255,201.83,251.78,203.69Z"/><path class="cls-49" d="M131.2,230.3l82.35-47.54c3.21-1.86,8.83-1.62,12.54.52l24.79,14.31a5.61,5.61,0,0,1,3,3.54c.33-1.59-.69-3.35-3-4.68l-24.79-14.31c-3.71-2.14-9.33-2.38-12.54-.52L131.2,229.16c-1.68,1-2.37,2.33-2.11,3.7A4,4,0,0,1,131.2,230.3Z"/><path class="cls-49" d="M197.67,203.36l-4.37-2.52-4.37,2.52,4.37,2.52Zm-8.59,5-4.37-2.52-4.36,2.52,4.36,2.52Zm17.17-9.91-4.37-2.53-4.36,2.53,4.36,2.52ZM231.19,201l9.09-5.25-4.36-2.52-9.1,5.25Zm1.72-9.51L228.54,189l-4.37,2.52,4.37,2.53Zm-18.08,1.92-4.36-2.52-4.37,2.52,4.37,2.52ZM180.5,213.27l-4.37-2.52-4.37,2.52,4.37,2.53Zm44.83-13.89-75.26,43.46,4.37,2.52,75.26-43.45Zm-53.42,18.85-4.37-2.52-4.36,2.52,4.36,2.52Zm50-25.38-79.19,45.73,4.37,2.52,79.19-45.72Zm21.41,4.68L157.45,247.1l4.36,2.52,85.85-49.57Zm-88.55,30.61-4.37-2.52L146,228.14l4.36,2.53Zm8.59-4.95L159,220.67l-4.37,2.52,4.37,2.52Z"/><path class="cls-50" d="M197.67,202.6l-4.37-2.52-4.37,2.52,4.37,2.52Zm-8.59,5L184.71,205l-4.36,2.52,4.36,2.52Zm17.17-9.91-4.37-2.53-4.36,2.53,4.36,2.52Zm24.94,2.63,9.09-5.25-4.36-2.52-9.1,5.25Zm1.72-9.51-4.37-2.52-4.37,2.52,4.37,2.53Zm-18.08,1.92-4.36-2.52-4.37,2.52,4.37,2.52ZM180.5,212.51,176.13,210l-4.37,2.52,4.37,2.53Zm44.83-13.89-75.26,43.46,4.37,2.52,75.26-43.45Zm-53.42,18.85L167.54,215l-4.36,2.52,4.36,2.52Zm50-25.38-79.19,45.73,4.37,2.52,79.19-45.72Zm21.41,4.68-85.84,49.57,4.36,2.52,85.85-49.57Zm-88.55,30.61-4.37-2.52L146,227.38l4.36,2.53Zm8.59-4.95L159,219.91l-4.37,2.52L159,225Z"/><path class="cls-14" d="M201.88,195.5l4,2.34.33-.19-4.37-2.53-4.36,2.53.32.19Zm8.59-4.95,4,2.33.32-.19-4.36-2.52-4.37,2.52.33.19Zm-17.17,9.91,4,2.33.33-.19-4.37-2.52-4.37,2.52.33.19ZM227.15,198l8.77-5.06,4,2.33.33-.19-4.36-2.52-9.1,5.25Zm-42.44,7.47,4,2.33.33-.19L184.71,205l-4.36,2.52.32.19Zm43.83-16.79,4,2.33.33-.19-4.37-2.52-4.37,2.52.33.19Zm14.75,8.14-85.84,49.57.32.19,85.52-49.38,4,2.33.33-.19Zm-17.37-2,.33-.19-4.37-2.53-79.19,45.73.33.19,78.86-45.54Zm-75.55,30.43,4,2.33.33-.19-4.37-2.52L146,227.38l.33.19Zm79-23.9.33-.19-4.37-2.53-75.26,43.46.33.19L225.33,199ZM159,220.29l4,2.33.33-.19L159,219.91l-4.37,2.52.33.19Zm17.17-9.92,4,2.33.33-.19L176.13,210l-4.37,2.52.33.19Zm-8.59,5,4,2.33.33-.19L167.54,215l-4.36,2.52.33.19Z"/><path class="cls-48" d="M245,231.61l-25.66,14.81a7,7,0,0,1-6.24-.25l-5.64-3.26c-1.84-1.06-2-2.68-.45-3.6l25.66-14.82a7,7,0,0,1,6.24.26l5.64,3.26C246.43,229.07,246.63,230.69,245,231.61Z"/><path class="cls-49" d="M207.05,240.07l25.66-14.82a7,7,0,0,1,6.24.26l5.64,3.26a2.86,2.86,0,0,1,1.46,1.66c.22-.81-.27-1.74-1.46-2.42L239,224.75a7,7,0,0,0-6.24-.26l-25.66,14.82a1.73,1.73,0,0,0-1,1.94A2,2,0,0,1,207.05,240.07Z"/><path class="cls-51" d="M200.12,109.09v-3c0-2.54-1.79-3.57-4-2.3l-68.31,39.44a8.8,8.8,0,0,0-4,6.89v3Z"/><g class="cls-52"><path class="cls-14" d="M130.89,145.29a3.53,3.53,0,0,1-1.61,2.77c-.88.51-1.6.1-1.6-.92a3.56,3.56,0,0,1,1.6-2.78C130.17,143.85,130.89,144.27,130.89,145.29Z"/><path class="cls-14" d="M136.52,142a3.53,3.53,0,0,1-1.61,2.77c-.88.51-1.6.1-1.6-.92a3.55,3.55,0,0,1,1.6-2.78C135.8,140.6,136.52,141,136.52,142Z"/><path class="cls-14" d="M142.15,138.79a3.53,3.53,0,0,1-1.61,2.77c-.88.51-1.6.1-1.6-.92a3.55,3.55,0,0,1,1.6-2.78C141.43,137.35,142.15,137.77,142.15,138.79Z"/></g><polygon class="cls-30" points="135.93 160.41 123.86 167.38 123.86 156.4 135.93 149.42 135.93 160.41"/><polygon class="cls-27" points="151.02 151.7 138.94 158.67 138.94 147.69 151.02 140.71 151.02 151.7"/><polygon class="cls-24" points="166.11 142.99 154.03 149.96 154.03 138.98 166.11 132 166.11 142.99"/><polygon class="cls-53" points="170.26 140.59 200.12 123.35 200.12 121.04 170.26 138.28 170.26 140.59"/><polygon class="cls-54" points="170.26 136.25 200.12 119.01 200.12 116.7 170.26 133.94 170.26 136.25"/><polygon class="cls-55" points="170.26 131.91 200.12 114.68 200.12 112.37 170.26 129.6 170.26 131.91"/><path class="cls-51" d="M197.49,148.46l-71,41c-1.45.83-2.62-.06-2.62-2V174.29a6.28,6.28,0,0,1,2.62-5l71-41c1.45-.83,2.63.06,2.63,2v13.19A6.3,6.3,0,0,1,197.49,148.46Z"/><polygon class="cls-30" points="155.03 170.01 145.75 175.37 145.75 163.92 155.03 158.56 155.03 170.01"/><polygon class="cls-24" points="166.63 163.32 157.34 168.68 157.34 159.03 166.63 153.67 166.63 163.32"/><polygon class="cls-27" points="178.22 156.63 168.94 161.98 168.94 147.91 178.22 142.55 178.22 156.63"/><polygon class="cls-56" points="194.95 145.62 197.44 144.18 197.44 141.87 194.95 143.31 194.95 145.62"/><polygon class="cls-57" points="194.95 141.28 197.44 139.84 197.44 137.53 194.95 138.97 194.95 141.28"/><polygon class="cls-58" points="194.95 136.94 197.44 135.5 197.44 133.19 194.95 134.63 194.95 136.94"/><polygon class="cls-59" points="180.84 153.76 193.74 146.31 193.74 144 180.84 151.45 180.84 153.76"/><polygon class="cls-60" points="180.84 149.42 193.74 141.97 193.74 139.66 180.84 147.11 180.84 149.42"/><polygon class="cls-61" points="180.84 145.09 193.74 137.64 193.74 135.33 180.84 142.78 180.84 145.09"/><polygon class="cls-62" points="129.11 172.64 126.62 174.08 126.62 176.39 129.11 174.95 129.11 172.64"/><polygon class="cls-63" points="129.11 176.98 126.62 178.42 126.62 180.73 129.11 179.29 129.11 176.98"/><polygon class="cls-64" points="129.11 181.32 126.62 182.76 126.62 185.07 129.11 183.63 129.11 181.32"/><polygon class="cls-65" points="143.21 164.5 130.31 171.95 130.31 174.26 143.21 166.81 143.21 164.5"/><polygon class="cls-66" points="143.21 168.84 130.31 176.29 130.31 178.59 143.21 171.15 143.21 168.84"/><polygon class="cls-67" points="143.21 173.17 130.31 180.62 130.31 182.93 143.21 175.48 143.21 173.17"/><path class="cls-51" d="M195,161.09l-65,37.49c-1.34.78-2.45-.05-2.45-1.85h0a5.92,5.92,0,0,1,2.45-4.68l65-37.5c1.34-.78,2.44.06,2.44,1.85h0A5.92,5.92,0,0,1,195,161.09Z"/><path class="cls-68" d="M127.35,209.41,65.73,245c-1.9,1.1-3.46-.08-3.46-2.62V184.11c0-2.54,1.56-5.52,3.46-6.62l61.62-35.58c1.91-1.1,3.47.08,3.47,2.62v58.25C130.82,205.33,129.26,208.31,127.35,209.41Z"/><g class="cls-52"><polygon class="cls-69" points="125.46 203.44 67.63 236.82 67.63 232.48 125.46 199.1 125.46 203.44"/><ellipse class="cls-70" cx="96.54" cy="187.42" rx="25.29" ry="14.6" transform="translate(-114.04 177.32) rotate(-60)"/></g><path class="cls-71" d="M253.88,120.1l-61.62,35.58c-1.91,1.1-3.47-.08-3.47-2.62V107.61c0-2.54,1.56-5.52,3.47-6.62l61.62-35.58c1.91-1.1,3.47.08,3.47,2.62v45.45C257.35,116,255.79,119,253.88,120.1Z"/><g class="cls-52"><polygon class="cls-72" points="251.99 112.43 194.16 145.82 194.16 141.48 251.99 108.09 251.99 112.43"/><polygon class="cls-73" points="251.99 103.55 194.16 136.93 194.16 132.6 251.99 99.21 251.99 103.55"/><polygon class="cls-74" points="210.86 116.92 195.33 125.89 195.33 107.95 210.86 98.98 210.86 116.92"/><polygon class="cls-75" points="230.84 105.38 215.31 114.35 215.31 96.42 230.84 87.45 230.84 105.38"/><polygon class="cls-76" points="250.81 93.85 235.28 102.82 235.28 84.88 250.81 75.92 250.81 93.85"/></g><path class="cls-8" d="M80.55,318.93,47.48,338c-2.41,1.39-6.66,1.21-9.44-.4L6.32,319.32c-2.78-1.6-3.09-4.06-.68-5.45l33.08-19.09c2.41-1.4,6.66-1.22,9.44.39l31.72,18.31C82.66,315.09,83,317.54,80.55,318.93Z"/><path class="cls-77" d="M82.14,377.19V317h0a3,3,0,0,1-1.59,1.93L47.48,338a8.64,8.64,0,0,1-4.38.92V400a8.54,8.54,0,0,0,4.38-.93L80.55,380A2.66,2.66,0,0,0,82.14,377.19Z"/><path class="cls-78" d="M38,337.63,6.32,319.32a4.2,4.2,0,0,1-2.26-2.67v60.19c-.24,1.2.53,2.53,2.26,3.53L38,398.68A11,11,0,0,0,43.1,400V339A10.76,10.76,0,0,1,38,337.63Z"/><ellipse class="cls-79" cx="34.22" cy="298.39" rx="18.13" ry="31.4" transform="translate(-144.61 57.09) rotate(-30)"/><ellipse class="cls-12" cx="34.22" cy="298.39" rx="16.32" ry="28.27" transform="translate(-144.61 57.09) rotate(-30)"/><path class="cls-13" d="M45.76,266.09C39.6,262.53,34,262.21,30,264.57l-11.43,6.6h0c4-2.29,9.54-1.94,15.64,1.58,12.26,7.08,22.2,24.3,22.2,38.46,0,7-2.46,12-6.45,14.33h0L61.4,319c4.05-2.31,6.56-7.29,6.56-14.41C68,290.39,58,273.17,45.76,266.09Z"/><path class="cls-14" d="M28.61,302.73a10.87,10.87,0,0,1,2.95.59l.29.1a15.07,15.07,0,0,1,1.87.82v-5.59l-6-3.45A37.79,37.79,0,0,0,28.61,302.73Z"/><path class="cls-14" d="M40.36,293.15H41a7.08,7.08,0,0,0,2-.47,28.81,28.81,0,0,0-5.27-6.51,25.37,25.37,0,0,1,1.7,3.86C39.78,291,40.09,292.07,40.36,293.15Z"/><path class="cls-14" d="M32.63,282.76c-1.11,0-2.12.76-3,2.2a10.73,10.73,0,0,0-.78,1.7,25.18,25.18,0,0,0,2.83,2.75l.28.23c.56.45,1.11.84,1.72,1.24v-7.59l-.1-.06C33.29,283.06,33,282.9,32.63,282.76Z"/><path class="cls-14" d="M31.72,304.47a10.23,10.23,0,0,0-2.83-.52c.23.9.49,1.76.78,2.6a17.84,17.84,0,0,0,3,5.62c.33.24.66.46,1,.67l.1.06v-7.59a14.37,14.37,0,0,0-1.72-.74Z"/><path class="cls-14" d="M31.56,290.37a27.06,27.06,0,0,1-2.95-2.84,25.09,25.09,0,0,0-.88,6.56l6,3.46V292a19,19,0,0,1-1.87-1.34Z"/><path class="cls-14" d="M27.88,286.7l-.48-.59-.25-.33a34.88,34.88,0,0,1-2.11-3c-2.24,1.35-3.53,4.05-3.65,7.7l5.55,3.2A26,26,0,0,1,27.88,286.7Z"/><path class="cls-14" d="M28.17,304l-.33,0-.24,0a6.57,6.57,0,0,0-1.89.56,28.58,28.58,0,0,0,5,6,25.37,25.37,0,0,1-1.7-3.86C28.7,305.86,28.42,304.92,28.17,304Z"/><path class="cls-14" d="M27.4,302.77c.16,0,.32,0,.48,0a40.41,40.41,0,0,1-.94-8l-5.54-3.2A26.49,26.49,0,0,0,25,303.42a6.91,6.91,0,0,1,2.12-.61Z"/><path class="cls-14" d="M27.84,285.41l.33.41A11.42,11.42,0,0,1,29,284a5.52,5.52,0,0,1,1.7-1.9,7.63,7.63,0,0,0-5,.28,29.13,29.13,0,0,0,1.88,2.72Z"/><path class="cls-14" d="M40.63,309.79c.17.19.34.41.5.6l.26.32a31.64,31.64,0,0,1,2.28,3.15c2-1.36,3.25-3.87,3.37-7.51l-5.54-3.21A25.86,25.86,0,0,1,40.63,309.79Z"/><path class="cls-14" d="M36.74,292.43a10.72,10.72,0,0,0,2.89.69c-.25-1-.53-2-.86-2.9a17.7,17.7,0,0,0-3-5.63c-.32-.23-.66-.46-1-.67l-.14-.08v7.61a15.15,15.15,0,0,0,1.78.86Z"/><path class="cls-14" d="M40.72,311.13l-.36-.43a11.7,11.7,0,0,1-.93,2.07,5.61,5.61,0,0,1-1.7,1.9,7.44,7.44,0,0,0,5.29-.4A34.81,34.81,0,0,0,41,311.43Z"/><path class="cls-14" d="M41.39,294.34h-.76A40.62,40.62,0,0,1,41.5,302l5.55,3.21a26.44,26.44,0,0,0-3.39-11.44A7.32,7.32,0,0,1,41.39,294.34Z"/><path class="cls-14" d="M39.89,294.31a11.46,11.46,0,0,1-3-.74l-.3-.12a17.51,17.51,0,0,1-1.9-.93v5.58l6,3.49A37.76,37.76,0,0,0,39.89,294.31Z"/><path class="cls-14" d="M36.88,306.26a26.32,26.32,0,0,1,3,2.73,25.59,25.59,0,0,0,.81-6.3l-6-3.48v5.56a22.27,22.27,0,0,1,1.9,1.26Z"/><path class="cls-14" d="M39.62,309.89a23.74,23.74,0,0,0-2.89-2.65l-.28-.21a18.39,18.39,0,0,0-1.78-1.19v7.61l.14.07q.49.27,1,.48c1.11,0,2.13-.76,3-2.2A10.55,10.55,0,0,0,39.62,309.89Z"/><path class="cls-37" d="M284.6,284.19c-.28.12-.39.46-.42.95,0,.14,1.44-.83,1.38-.34,0,.14-1.05,7.1,1.17,9.41a.66.66,0,0,0,.81.08l.61-.35c.7-.35,1.17-2,1.8-4.35.7-2.64,1.13-4.32-1.78-6-.83-.49-1.31-.61-1.58-.46Z"/><path class="cls-38" d="M290,289.59c-.84,3.19-1.39,5-2.6,4.27s-1.48-3.34-1.06-6.44c.36-2.71-1-5.58,1.88-3.86S290.65,287,290,289.59Z"/><path class="cls-40" d="M308.71,269.18l-6,2.18-2.43,2.76a25.53,25.53,0,0,0-7.68,5.36s-1.29,1.88-5.53,4c0,0,0,3,2.64,3.45l17-9.8a4.29,4.29,0,0,0,2.13-3.26A19.21,19.21,0,0,0,308.71,269.18Z"/><path class="cls-80" d="M296.15,299.26c0,.31.22.57.62.83.12.07,0-1.65.39-1.37.12.09,5.67,4.41,8.77,3.61a.65.65,0,0,0,.46-.66V301c0-.79-1.13-2-2.9-3.72-2-1.9-3.21-3.09-6.13-1.41-.84.49-1.17.85-1.18,1.16Z"/><path class="cls-38" d="M303.49,297.25c2.36,2.31,3.65,3.67,2.44,4.37s-3.64-.36-6.13-2.24c-2.18-1.64-5.37-1.85-2.44-3.54S301.53,295.35,303.49,297.25Z"/><path class="cls-39" d="M301.11,296.15l-.17-21.27-5.77,1.87-.06,3.88A25.7,25.7,0,0,0,296,290s1,2.05.8,6.81C296.8,296.76,299.39,298.23,301.11,296.15Z"/><path class="cls-40" d="M316.84,266.35h0a2.31,2.31,0,0,1-3-1.14L304.66,245a2.32,2.32,0,0,1,1.15-3.06h0a2.32,2.32,0,0,1,3.05,1.15L318,263.3A2.31,2.31,0,0,1,316.84,266.35Z"/><polygon class="cls-81" points="317.73 264.06 303.44 255.81 303.44 244.28 317.73 252.53 317.73 264.06"/><polygon class="cls-82" points="314.21 260.95 314.21 252.2 314.52 252.38 314.52 261.12 314.21 260.95"/><polygon class="cls-82" points="313.52 257.96 313.52 251.8 313.83 251.98 313.83 258.13 313.52 257.96"/><polygon class="cls-82" points="312.83 259.47 312.83 251.4 313.13 251.58 313.13 259.65 312.83 259.47"/><polygon class="cls-82" points="312.14 259.75 312.14 251 312.44 251.18 312.44 259.93 312.14 259.75"/><polygon class="cls-82" points="311.45 253.81 311.45 250.6 311.75 250.78 311.75 253.99 311.45 253.81"/><path class="cls-27" d="M291.42,269.92v7.85s9.21,3.11,17.86-7.85v-7.6Z"/><path class="cls-83" d="M295.59,272.35a.63.63,0,0,0,.3.1c1.54.12,7.09-1.09,12.64-7.34a3,3,0,0,0,.75-1.8V245.56a2.91,2.91,0,0,0-1.25-2.7l-4.17-2.44a2.91,2.91,0,0,0-3,.27L295.2,244a9.27,9.27,0,0,0-4.18,7.24v17.84a.92.92,0,0,0,.4.86Z"/><path class="cls-42" d="M297.21,245.08a1.43,1.43,0,0,0,.86,1.22,4.56,4.56,0,0,0,4.16,0,1.45,1.45,0,0,0,.86-1.22v-3.86a1.46,1.46,0,0,0-.86-1.23,4.62,4.62,0,0,0-4.16,0,1.44,1.44,0,0,0-.86,1.23Z"/><path class="cls-36" d="M281.51,270.47h0a2.32,2.32,0,0,1-1-3.1l10-19.88a2.32,2.32,0,0,1,3.1-1h0a2.31,2.31,0,0,1,1,3.09l-10,19.88A2.31,2.31,0,0,1,281.51,270.47Z"/><path class="cls-84" d="M307.63,232.84l2.91,11.29a1.31,1.31,0,0,1-1.78,1.54l-6.69-2.78a1.32,1.32,0,0,1-.79-1.47l2.19-11.1a1.32,1.32,0,0,1,2.42-.44l1.59,2.6A1.25,1.25,0,0,1,307.63,232.84Z"/><path class="cls-36" d="M297.45,239.6c0,1-.68,1.36-1.52.87a3.34,3.34,0,0,1-1.51-2.62c0-1,.68-1.36,1.51-.88A3.36,3.36,0,0,1,297.45,239.6Z"/><circle class="cls-36" cx="300.11" cy="234.99" r="8.1"/><path class="cls-84" d="M292.24,236.07s6.84,3.75,10.18-6a5.62,5.62,0,0,0,6.23,3.21,7.94,7.94,0,0,0-6.62-7.66S290.31,224.44,292.24,236.07Z"/><path class="cls-84" d="M296,236.39l2.91,11.29a1.31,1.31,0,0,1-1.78,1.54l-6.7-2.78a1.3,1.3,0,0,1-.78-1.47l2.19-11.11a1.32,1.32,0,0,1,2.41-.43l1.6,2.6A1.44,1.44,0,0,1,296,236.39Z"/><path d="M231.34,271c-.05.94,1.37,2.27,3.54,3.52,2.89,1.67,3.91,3.78,7.48,1.72,1-.59,1.45-1.06,1.47-1.47v-2.22c.1-1-2.37-1.67-4.45-2.87-2.88-1.67-6-2.57-7.47-1.72a1,1,0,0,0-.57.82Z"/><path class="cls-80" d="M234.88,272.32c-2.88-1.67-4.46-3.46-3-4.32s4.59.05,7.47,1.72,6.55,2.26,3,4.32S237.77,274,234.88,272.32Z"/><path d="M239.36,265.51c-.05.94,1.37,2.27,3.54,3.52,2.89,1.67,3.91,3.78,7.48,1.72,1-.59,1.45-1.06,1.47-1.47v-2.21c.1-1-2.37-1.68-4.44-2.88-2.89-1.66-6-2.57-7.48-1.71a1,1,0,0,0-.57.81Z"/><path class="cls-80" d="M242.9,266.79c-2.88-1.66-4.45-3.46-3-4.31s4.59,0,7.48,1.71,6.54,2.26,3,4.32S245.79,268.46,242.9,266.79Z"/><path class="cls-85" d="M236.19,199.25h0a2.38,2.38,0,0,1,3.27.74l9.84,15.66a2.37,2.37,0,0,1-.74,3.27h0a2.39,2.39,0,0,1-3.27-.74l-9.84-15.67A2.36,2.36,0,0,1,236.19,199.25Z"/><path class="cls-86" d="M242.65,216.4l3.17,5a3.67,3.67,0,0,0,5.05,1.15h0a3.67,3.67,0,0,0,1.16-5l-3.18-5.05S244.87,211,242.65,216.4Z"/><path class="cls-87" d="M243.73,271.58a1.62,1.62,0,0,0,.17-.72V246.11c0-1.56-1.62-2.85-3.59-2.85h0c-2,0-3.59,1.29-3.59,2.85V273a.9.9,0,0,0,.64.86C238.74,274.31,242,274.9,243.73,271.58Z"/><path class="cls-87" d="M251.77,265.78a1.48,1.48,0,0,0,.15-.72l-.54-24.75c0-1.56-1.67-2.81-3.65-2.77h0c-2,.05-3.55,1.36-3.52,2.93l.59,26.91a.91.91,0,0,0,.66.85C246.84,268.61,250.11,269.14,251.77,265.78Z"/><path class="cls-88" d="M237.9,250.56a.63.63,0,0,0,.31.1c1.58.12,7.28-1.12,13-7.55a3,3,0,0,0,.77-1.84V223a3,3,0,0,0-1.28-2.78l-4.29-2.5a3,3,0,0,0-3.05.28l-5.85,3.37a9.54,9.54,0,0,0-4.3,7.44v18.35a.92.92,0,0,0,.42.88Z"/><path class="cls-39" d="M239.56,222.53a1.5,1.5,0,0,0,.89,1.25,4.74,4.74,0,0,0,4.28,0,1.49,1.49,0,0,0,.88-1.25v-4a1.49,1.49,0,0,0-.88-1.25,4.74,4.74,0,0,0-4.28,0,1.5,1.5,0,0,0-.89,1.25Z"/><circle class="cls-85" cx="242.59" cy="212.21" r="8.33"/><path class="cls-85" d="M228.17,249h0a2.38,2.38,0,0,1-1.48-3L233,229.1a2.38,2.38,0,0,1,3-1.48h0a2.38,2.38,0,0,1,1.48,3l-6.27,16.93A2.37,2.37,0,0,1,228.17,249Z"/><path class="cls-86" d="M237.72,233.8l1.93-5.65a3.68,3.68,0,0,0-2.29-4.65h0a3.67,3.67,0,0,0-4.65,2.29l-1.93,5.65S232.13,235.48,237.72,233.8Z"/><path class="cls-89" d="M247.28,219.81c-2.63,1.53-4.63.36-5.35-.75-1.79-2.78-2.09-.92-3.16-2.23-1.41-2.31-1.09-5.45-3-6.9-2.79-2.09-2-6.24,5.26-8.1,9.79-2.49,13.64,9.84,7.54,17A4,4,0,0,1,247.28,219.81Z"/><path class="cls-85" d="M239.68,217.17a1,1,0,0,1-1.74-.46,3.41,3.41,0,0,1,.81-3c.7-.7,1.48-.5,1.73.46A3.44,3.44,0,0,1,239.68,217.17Z"/><path class="cls-85" d="M197.25,315.42h0a2.1,2.1,0,0,1-2.92-.51l-9.47-13.4a2.1,2.1,0,0,1,.51-2.92h0a2.1,2.1,0,0,1,2.92.5l9.47,13.4A2.11,2.11,0,0,1,197.25,315.42Z"/><path class="cls-3" d="M190.72,300.54l-3.05-4.32a3.26,3.26,0,0,0-4.53-.78h0a3.26,3.26,0,0,0-.77,4.53l3,4.32S189,305.43,190.72,300.54Z"/><path class="cls-88" d="M180.06,317.7a1.38,1.38,0,0,0,.48.45l11.05,6.32c1.21.69,2.9,0,3.77-1.5h0c.87-1.52.6-3.32-.6-4l-12.71-7.27a.8.8,0,0,0-1,.11C180.17,312.66,178.28,314.91,180.06,317.7Z"/><path class="cls-88" d="M172.75,321.45a1.38,1.38,0,0,0,.48.45l11.05,6.32c1.2.69,2.9,0,3.77-1.5h0c.87-1.52.59-3.33-.61-4l-12.71-7.27a.8.8,0,0,0-.95.1C172.86,316.41,171,318.65,172.75,321.45Z"/><path class="cls-37" d="M190,340.47c-.09.92,2.1,1.49,3.95,2.55,2.55,1.48,5.31,2.28,6.62,1.52a.84.84,0,0,0,.5-.72v-1.5c.05-.85-1.21-2.15-3.13-4-2.12-2.06-3.47-3.35-6.63-1.52-.91.52-1.27.91-1.27,1.24Z"/><path class="cls-90" d="M198,338.3c2.55,2.49,3.95,4,2.63,4.72s-3.93-.38-6.62-2.41c-2.36-1.79-5.8-2-2.64-3.83S195.85,336.24,198,338.3Z"/><path class="cls-88" d="M195.92,336.49a1.36,1.36,0,0,0,.15-.63V321.08c0-1.39-1.43-2.53-3.18-2.53h0c-1.75,0-3.18,1.14-3.18,2.53v16.7a.8.8,0,0,0,.56.76C191.49,338.91,194.39,339.44,195.92,336.49Z"/><path class="cls-91" d="M173.85,322.74a.58.58,0,0,0,.27.09c1.4.11,6.46-1,11.51-6.69a2.62,2.62,0,0,0,.69-1.64V298.33a2.67,2.67,0,0,0-1.14-2.47l-3.8-2.21a2.64,2.64,0,0,0-2.71.24l-5.18,3a8.42,8.42,0,0,0-3.81,6.59v16.27a.79.79,0,0,0,.37.77Z"/><path class="cls-37" d="M182.46,343.82c-.1.92,2.1,1.49,3.94,2.55,2.56,1.48,5.31,2.28,6.63,1.52a.86.86,0,0,0,.5-.72v-1.5c0-.85-1.22-2.15-3.14-4-2.12-2.06-3.47-3.35-6.63-1.52-.9.52-1.27.91-1.27,1.24Z"/><path class="cls-90" d="M190.39,341.65c2.56,2.49,4,4,2.64,4.72s-3.94-.38-6.63-2.42c-2.36-1.78-5.8-2-2.64-3.82S188.27,339.59,190.39,341.65Z"/><path class="cls-88" d="M188.34,339.84a1.25,1.25,0,0,0,.15-.63V324.43c0-1.39-1.43-2.53-3.18-2.53h0c-1.75,0-3.18,1.14-3.18,2.53v16.7a.79.79,0,0,0,.57.76C183.92,342.26,186.81,342.79,188.34,339.84Z"/><path class="cls-39" d="M174.42,297.89a1.3,1.3,0,0,0,.79,1.11,4.15,4.15,0,0,0,3.79,0,1.31,1.31,0,0,0,.78-1.11v-3.52a1.31,1.31,0,0,0-.78-1.11,4.15,4.15,0,0,0-3.79,0,1.3,1.3,0,0,0-.79,1.11Z"/><circle class="cls-85" cx="177.1" cy="288.75" r="7.38"/><path class="cls-92" d="M173.14,294.53a5.84,5.84,0,0,0,1.52-2.46.52.52,0,0,0,0-.18v-3.53a3.8,3.8,0,0,1,.54-2,1.64,1.64,0,0,1,1.44-.92s5.93,2.59,8.14-2.24a.64.64,0,0,0-.42-.9c-.42-.1-1-.47-1.6-1.47a.67.67,0,0,0-.7-.31,2.6,2.6,0,0,1-2.66-1,.6.6,0,0,0-.49-.2c-1.12,0-5,.21-7.15,1.74l0,0c-.45.38-7.78,6.62.52,13.46A.66.66,0,0,0,173.14,294.53Z"/><path class="cls-85" d="M174.64,292.9c0,.88-.62,1.23-1.39.79a3.06,3.06,0,0,1-1.38-2.39c0-.88.62-1.24,1.38-.8A3.06,3.06,0,0,1,174.64,292.9Z"/><polygon class="cls-93" points="195.58 318.13 182.43 325.7 172.33 320.2 185.8 312.49 195.58 318.13"/><polygon class="cls-94" points="195.58 318.13 197.65 304.94 183.05 313.36 182.43 325.7 195.58 318.13"/><path class="cls-85" d="M184.07,320.38h0a2.11,2.11,0,0,1-2.93-.49l-9.52-13.36a2.1,2.1,0,0,1,.5-2.93h0a2.1,2.1,0,0,1,2.92.5l9.52,13.35A2.11,2.11,0,0,1,184.07,320.38Z"/><path class="cls-3" d="M177.08,306.12l-2.65-4.58a3.25,3.25,0,0,0-4.44-1.18h0a3.25,3.25,0,0,0-1.18,4.43l2.65,4.58S174.94,310.83,177.08,306.12Z"/><path class="cls-36" d="M372,274.07h0a2.23,2.23,0,0,0,2.58-1.8l1.62-9a2.24,2.24,0,0,0-1.8-2.58h0a2.22,2.22,0,0,0-2.57,1.8l-1.62,9.05A2.23,2.23,0,0,0,372,274.07Z"/><path class="cls-95" d="M370.14,264.92l1-5.52a3.45,3.45,0,0,1,4-2.77h0a3.44,3.44,0,0,1,2.78,4l-1,5.51S374,268.83,370.14,264.92Z"/><path class="cls-36" d="M362.06,274.86h0a2.23,2.23,0,0,0,2.78,1.45l7.67-2.24a2.21,2.21,0,0,0,2.07-2.35h0a2.23,2.23,0,0,0-2.36-2.08l-8.71,2.43A2.23,2.23,0,0,0,362.06,274.86Z"/><path class="cls-37" d="M385.93,310.13c.1,1-2.22,1.57-4.17,2.7-2.71,1.56-5.62,2.41-7,1.61a.91.91,0,0,1-.53-.76v-1.59c-.05-.9,1.29-2.27,3.32-4.25,2.24-2.18,3.67-3.54,7-1.61,1,.55,1.34,1,1.35,1.31Z"/><path class="cls-90" d="M377.54,307.84c-2.7,2.63-4.18,4.19-2.79,5s4.16-.4,7-2.55c2.49-1.89,6.14-2.12,2.79-4S379.78,305.66,377.54,307.84Z"/><path class="cls-96" d="M379.7,305.93a1.57,1.57,0,0,1-.15-.68V282c0-1.47,1.51-2.67,3.36-2.67h0c1.85,0,3.37,1.2,3.37,2.67v25.24a.85.85,0,0,1-.6.81C384.39,308.48,381.33,309,379.7,305.93Z"/><path class="cls-37" d="M378.65,304.77c.1,1-2.22,1.57-4.17,2.69-2.71,1.56-5.62,2.41-7,1.61a.91.91,0,0,1-.53-.76v-1.59c-.05-.9,1.29-2.27,3.32-4.25,2.24-2.18,3.67-3.54,7-1.61,1,.55,1.34,1,1.35,1.32Z"/><path class="cls-90" d="M370.26,302.47c-2.7,2.64-4.18,4.19-2.79,5s4.16-.4,7-2.55c2.5-1.89,6.14-2.12,2.79-4.05S372.5,300.29,370.26,302.47Z"/><path class="cls-97" d="M372.42,300.56a1.56,1.56,0,0,1-.15-.67V276.67c0-1.46,1.51-2.66,3.36-2.66h0c1.85,0,3.37,1.2,3.37,2.66v25.24a.84.84,0,0,1-.6.81C377.11,303.12,374.05,303.67,372.42,300.56Z"/><path class="cls-98" d="M385.17,286.22a.7.7,0,0,1-.29.09c-1.48.11-6.83-1.05-12.18-7.08a2.78,2.78,0,0,1-.72-1.73V260.39a2.81,2.81,0,0,1,1.2-2.61l4-2.34a2.78,2.78,0,0,1,2.86.26l5.49,3.17a8.92,8.92,0,0,1,4,7v17.21a.88.88,0,0,1-.39.82Z"/><path class="cls-99" d="M383.61,259.93a1.39,1.39,0,0,1-.83,1.17,4.43,4.43,0,0,1-4,0,1.39,1.39,0,0,1-.83-1.17V256.2a1.42,1.42,0,0,1,.83-1.18,4.43,4.43,0,0,1,4,0,1.42,1.42,0,0,1,.83,1.18Z"/><circle class="cls-85" cx="380.78" cy="250.26" r="7.81"/><path class="cls-100" d="M387.29,241c6.67,2.29,3.36,12-1.5,15.55-2.37-1.29.51-3.61-2.72-2-.65-3.14.8-2.18-.08-6.13-3.39,1.77-10-.37-11-3.64,1.18-.53,2.42-3.88,5.18-5.12C380.71,238.1,385.27,238.8,387.29,241Z"/><path class="cls-85" d="M383.38,254.64c0,.93.66,1.31,1.46.85A3.23,3.23,0,0,0,386.3,253c0-.94-.65-1.31-1.46-.85A3.26,3.26,0,0,0,383.38,254.64Z"/><polygon class="cls-101" points="386.26 274.87 374.04 281.93 361.81 274.87 361.81 269.5 374.04 262.44 386.26 269.5 386.26 274.87"/><polygon class="cls-102" points="374.04 262.44 386.26 269.5 374.04 276.41 361.81 269.5 374.04 262.44"/><path class="cls-36" d="M385.89,279.5h0a2.24,2.24,0,0,0,2.52-1.88l1.3-9.11a2.23,2.23,0,0,0-1.89-2.51h0a2.22,2.22,0,0,0-2.51,1.88L384,277A2.22,2.22,0,0,0,385.89,279.5Z"/><path class="cls-95" d="M383.72,270.42l.79-5.54A3.46,3.46,0,0,1,388.4,262h0a3.46,3.46,0,0,1,2.92,3.89l-.8,5.54S387.68,274.2,383.72,270.42Z"/><path class="cls-36" d="M373.59,281.56h0a2.23,2.23,0,0,0,2.84,1.35l10-3.42a2.22,2.22,0,0,0,2-2.43h0a2.22,2.22,0,0,0-2.43-2l-11,3.65A2.23,2.23,0,0,0,373.59,281.56Z"/></g></g></g></svg>