<svg width="715" height="717" viewBox="0 0 715 717" fill="none" xmlns="http://www.w3.org/2000/svg">
<path d="M630.883 135.716L601.735 152.545C590.591 158.979 586.773 173.229 593.207 184.373L610.035 213.522C616.469 224.666 630.719 228.484 641.864 222.05L671.012 205.221C682.156 198.787 685.974 184.537 679.54 173.393L662.712 144.245C656.277 133.101 642.027 129.282 630.883 135.716Z" fill="#F1F3FB" fill-opacity="0.6"/>
<path d="M630.409 540.101L596.646 559.594C586.776 565.293 583.394 577.913 589.093 587.783L608.586 621.546C614.284 631.416 626.905 634.797 636.775 629.099L670.537 609.606C680.407 603.908 683.789 591.287 678.091 581.417L658.598 547.655C652.899 537.785 640.279 534.403 630.409 540.101Z" fill="#F1F3FB" fill-opacity="0.6"/>
<path d="M314.995 58.6111L71.6172 258.951C32.2933 291.321 26.6561 349.44 59.0261 388.764L270.607 645.798C302.977 685.122 361.097 690.759 400.42 658.389L643.798 458.049C683.122 425.679 688.759 367.56 656.389 328.236L444.808 71.2022C412.438 31.8783 354.319 26.2411 314.995 58.6111Z" fill="#F1F3FB" fill-opacity="0.6"/>
</svg>
