<svg xmlns="http://www.w3.org/2000/svg" version="1.1" xmlns:xlink="http://www.w3.org/1999/xlink" width="512" height="512" x="0" y="0" viewBox="0 0 512 512" style="enable-background:new 0 0 512 512" xml:space="preserve"><g><path d="m140.829 343.517 75.896-59.096a8.004 8.004 0 0 1 7.382-1.298l71.212 23.08 57.05-57.536-2.947.258a8.001 8.001 0 0 1-1.397-15.939l24.705-2.166a8.001 8.001 0 0 1 8.649 8.859l-2.755 24.646a8.002 8.002 0 0 1-8.838 7.061 8 8 0 0 1-7.062-8.839l.201-1.803-59.709 60.219a7.995 7.995 0 0 1-8.147 1.978l-71.859-23.29-72.549 56.49a7.967 7.967 0 0 1-4.909 1.688 7.987 7.987 0 0 1-6.318-3.085 7.998 7.998 0 0 1 1.395-11.227zM504 424.379C504 468.282 468.282 504 424.379 504H75.637a8 8 0 0 1-8-8V189.725a8 8 0 0 1 8-8h23.97a8 8 0 0 1 8 8V464.03h9.701v-71.854a8 8 0 0 1 8-8h40.873a8 8 0 0 1 8 8v71.854h19.022V341.57a8 8 0 0 1 8-8h40.872a8 8 0 0 1 8 8v122.459h19.022V358.606a8 8 0 0 1 8-8h40.873a8 8 0 0 1 8 8v105.423h19.021v-33.858c-.138-1.915-.233-3.842-.233-5.792s.095-3.877.233-5.792V287.955a8 8 0 0 1 8-8h40.873a8 8 0 0 1 8 8v60.065a79.356 79.356 0 0 1 22.515-3.262c43.903 0 79.621 35.718 79.621 79.621zm-143.009-48.111a80.186 80.186 0 0 1 24.873-21.545v-58.769h-24.873zm-75.893 87.761h24.873v-97.423h-24.873zm-75.895 0h24.872V349.57h-24.872zm-75.895 0h24.873v-63.854h-24.873zM376.565 488a80.146 80.146 0 0 1-9.055-7.971H99.606a8 8 0 0 1-8-8V197.725h-7.97V488zM488 424.379c0-35.081-28.54-63.621-63.621-63.621s-63.621 28.54-63.621 63.621S389.298 488 424.379 488 488 459.46 488 424.379zm-2.256 5.304c-14.155 19.756-37.096 31.551-61.365 31.551s-47.21-11.795-61.365-31.551a9.104 9.104 0 0 1 0-10.608c14.155-19.756 37.096-31.55 61.365-31.55s47.21 11.794 61.365 31.55a9.1 9.1 0 0 1 0 10.608zm-16.152-5.304c-11.244-13.142-27.795-20.854-45.213-20.854s-33.969 7.712-45.213 20.854c11.244 13.142 27.795 20.854 45.213 20.854s33.969-7.712 45.213-20.854zm-45.213-11.001c-6.059 0-11 4.941-11 11s4.941 11 11 11 11-4.941 11-11-4.941-11-11-11zM87.621 167.242C43.718 167.242 8 131.524 8 87.621S43.718 8 87.621 8s79.621 35.718 79.621 79.621-35.718 79.621-79.621 79.621zm0-16c35.081 0 63.621-28.54 63.621-63.621S122.702 24 87.621 24 24 52.54 24 87.621s28.54 63.621 63.621 63.621zm1.175-4.298a8.004 8.004 0 0 1-7.723-5.932l-7.878-29.402-11.22 3.007a8 8 0 0 1-9.978-8.937l10.792-70.59a8.001 8.001 0 0 1 14.152-3.792l44.641 55.736a8 8 0 0 1-4.174 12.728l-11.219 3.006 7.879 29.403a7.999 7.999 0 0 1-5.657 9.798l-17.54 4.699a7.958 7.958 0 0 1-2.075.276zM86.58 99.742l7.878 29.402 2.085-.559-7.879-29.402a8 8 0 0 1 5.657-9.798l7.117-1.907L75.851 55.53l-6.187 40.462 7.118-1.907a7.99 7.99 0 0 1 6.07.8 7.993 7.993 0 0 1 3.728 4.857zm209.249 40.038c0-43.111 35.074-78.185 78.186-78.185S452.2 96.669 452.2 139.78s-35.074 78.186-78.186 78.186-78.185-35.074-78.185-78.186zm16 0c0 34.289 27.896 62.186 62.186 62.186S436.2 174.069 436.2 139.78s-27.896-62.185-62.186-62.185-62.185 27.896-62.185 62.185zm20.094-25.703c0-11.376 9.256-20.632 20.632-20.632s20.632 9.256 20.632 20.632-9.256 20.632-20.632 20.632-20.632-9.256-20.632-20.632zm16 0c0 2.554 2.078 4.632 4.632 4.632s4.632-2.078 4.632-4.632-2.078-4.632-4.632-4.632-4.632 2.078-4.632 4.632zm-4.808 69.015a7.993 7.993 0 0 0 11.165-1.829l52.927-73.656a8 8 0 0 0-12.994-9.336l-52.927 73.656a8 8 0 0 0 1.829 11.165zm52.36-38.239c11.376 0 20.631 9.256 20.631 20.632s-9.255 20.631-20.631 20.631-20.632-9.255-20.632-20.631 9.256-20.632 20.632-20.632zm0 16c-2.554 0-4.632 2.078-4.632 4.632s2.078 4.631 4.632 4.631 4.631-2.077 4.631-4.631-2.078-4.632-4.631-4.632z" fill="#ffffff" opacity="1" data-original="#000000"></path></g></svg>