<svg xmlns="http://www.w3.org/2000/svg" version="1.1" xmlns:xlink="http://www.w3.org/1999/xlink" width="512" height="512" x="0" y="0" viewBox="0 0 512 512" style="enable-background:new 0 0 512 512" xml:space="preserve"><g><path d="M174.475 74.086a8 8 0 0 0 10.373 3.22c18.613-8.882 38.608-14.188 59.429-15.771a8 8 0 0 0 7.394-7.977V16.002a8.002 8.002 0 0 0-8.509-7.983c-29.41 1.878-57.677 9.448-84.016 22.5a8.003 8.003 0 0 0-3.377 11.168zm61.196-49.382v21.585c-17.671 2.047-34.757 6.58-50.963 13.521l-10.732-18.589c19.612-8.731 40.297-14.269 61.695-16.517zM58.495 327.808a8.001 8.001 0 0 0 11.172 3.386l32.552-18.793a8 8 0 0 0 3.221-10.372c-8.905-18.674-14.237-38.651-15.851-59.375a8 8 0 0 0-7.976-7.379H44.046a8.002 8.002 0 0 0-7.983 8.512c1.888 29.438 9.436 57.706 22.432 84.021zm15.864-76.534a183.326 183.326 0 0 0 13.585 50.893l-18.731 10.814C60.52 293.382 55 272.692 52.75 251.274zm-30.312-27.615h37.714a8 8 0 0 0 7.97-7.309c1.801-20.774 7.175-40.732 15.973-59.319a8.001 8.001 0 0 0-3.231-10.351l-32.747-18.906a8 8 0 0 0-11.17 3.378c-13.037 26.329-20.604 54.589-22.493 83.994a7.999 7.999 0 0 0 7.984 8.513zm25.217-77.677 18.95 10.941c-6.878 16.141-11.454 33.149-13.65 50.736H52.751c2.255-21.392 7.791-42.072 16.513-61.677zm428.714 104.361c-2.076-4.278-6.322-6.935-11.083-6.936h-7.88c.288-4.641.433-9.303.433-13.94 0-56.789-21.436-110.817-60.359-152.131-38.752-41.133-91.062-65.752-147.296-69.324a8.001 8.001 0 0 0-8.506 7.983v37.566a7.999 7.999 0 0 0 7.385 7.976c87.078 6.718 155.29 80.481 155.29 167.929 0 4.64-.191 9.305-.572 13.939h-5.116c-4.759 0-9.006 2.657-11.082 6.935-2.076 4.277-1.537 9.257 1.407 12.995l33.313 42.313a12.243 12.243 0 0 0 9.676 4.694c3.798 0 7.323-1.712 9.672-4.696l33.311-42.311c2.943-3.736 3.483-8.715 1.407-12.992zm-44.394 41.73-25.717-32.665h4.738a8 8 0 0 0 7.939-7.013 186.628 186.628 0 0 0 1.417-22.927c0-46.757-17.526-91.353-49.351-125.572-29.961-32.216-69.969-52.491-113.324-57.59V24.697c103.938 10.927 184.163 99.269 184.163 204.771 0 7.045-.36 14.154-1.071 21.128a8.002 8.002 0 0 0 7.959 8.812h8.966zM75.55 117.725l32.634 18.841a7.996 7.996 0 0 0 10.614-2.428c11.706-17.207 26.26-31.886 43.256-43.63a8 8 0 0 0 2.38-10.582l-18.713-32.411a8.002 8.002 0 0 0-11.375-2.651c-24.434 16.339-45.108 37.026-61.45 61.488a8.002 8.002 0 0 0 2.654 11.373zm60.676-54.659 10.739 18.601c-14.102 10.605-26.535 23.145-37.087 37.402l-18.781-10.843a205.55 205.55 0 0 1 45.129-45.16zm232.765 271.05-77.13 44.924c-2.934 1.708-5.908 3.026-8.971 3.961a32.872 32.872 0 0 0 2.296-6.123c4.102-15.311-4.979-31.289-20.673-36.376a8.058 8.058 0 0 0-1.047-.263c-22.072-3.981-43.9-11.873-61.44-18.214-6.116-2.211-11.893-4.3-16.816-5.896-20.179-6.547-38.313 1.495-53.391 10.226l-56.373 32.639-4.835-8.544c-2.54-4.488-6.688-7.722-11.679-9.106-4.99-1.381-10.211-.745-14.7 1.794l-21.641 12.248c-9.288 5.257-12.568 17.09-7.312 26.379l63.623 112.417c2.54 4.489 6.688 7.723 11.679 9.106 1.726.478 3.479.715 5.22.715 3.293 0 6.544-.848 9.48-2.509l21.641-12.248c4.488-2.541 7.722-6.688 9.106-11.679 1.383-4.991.746-10.212-1.794-14.701l-5.995-10.593 11.673-6.74 98.324 26.346c5.552 1.488 11.077 2.228 16.51 2.228 10.992 0 21.611-3.026 31.319-9.003l139.972-86.189c13.269-8.169 17.5-28.721 8.877-43.117-4.173-6.97-21.265-27.689-65.923-1.682zM120.61 473.294c-.14.505-.53 1.44-1.568 2.028L97.401 487.57c-1.037.589-2.041.441-2.546.3-.505-.14-1.44-.53-2.028-1.568L29.205 373.885c-.896-1.583-.316-3.678 1.268-4.574l21.642-12.248a3.257 3.257 0 0 1 1.618-.426c.38 0 .703.063.928.126.505.14 1.44.53 2.027 1.567l63.623 112.417c.586 1.039.439 2.041.299 2.547zm297.039-108.002L277.678 451.48c-10.819 6.659-22.695 8.325-35.3 4.945l-101.526-27.204a8.006 8.006 0 0 0-6.07.799l-14.424 8.327-37.031-65.43 56.508-32.718c12.631-7.313 26.272-13.449 40.438-8.853 4.67 1.515 10.065 3.465 16.312 5.724 17.954 6.491 40.261 14.556 63.453 18.806 7.429 2.639 11.583 9.805 9.693 16.859-2.491 9.292-10.305 10.448-16.542 9.738-11.292-2.325-22.045-5.394-33.421-8.642-5.422-1.548-11.028-3.149-16.795-4.695a8.001 8.001 0 0 0-4.141 15.455c5.64 1.511 11.183 3.094 16.542 4.625 11.794 3.368 35.217 9.056 35.27 9.064l9.594 1.561c14.619 2.337 27.597.057 39.674-6.976l77.13-44.924c21.584-12.571 38.087-14.039 44.146-3.922 4.14 6.91 2.354 17.645-3.539 21.273zM57.823 377.768a7.727 7.727 0 1 1-15.29 2.235 7.727 7.727 0 0 1 15.29-2.235zM325.51 154.503c0-31.912-25.963-57.875-57.875-57.875s-57.875 25.963-57.875 57.875c0 19.464 9.668 36.701 24.444 47.198-38.845 12.746-68.032 47.169-72.6 89.855a7.997 7.997 0 0 0 7.954 8.851h196.151a7.997 7.997 0 0 0 7.954-8.852c-4.569-42.685-33.755-77.107-72.599-89.854 14.777-10.496 24.446-27.734 24.446-47.198zm30.859 129.904h-177.47c8.622-41.631 45.303-72.02 88.715-72.03l.021.001h.02c43.411.01 80.092 30.398 88.714 72.029zm-88.735-88.03h-.026c-23.077-.015-41.848-18.793-41.848-41.874 0-23.09 18.785-41.875 41.875-41.875s41.875 18.785 41.875 41.875c0 23.081-18.771 41.86-41.849 41.874h-.027z" fill="#ffffff" opacity="1" data-original="#000000"></path></g></svg>