<svg xmlns="http://www.w3.org/2000/svg" version="1.1" xmlns:xlink="http://www.w3.org/1999/xlink" width="512" height="512" x="0" y="0" viewBox="0 0 1600 1600" style="enable-background:new 0 0 512 512" xml:space="preserve"><g><g fill="#231f20"><path d="M552 1487.9H56c-13.3 0-24-10.7-24-24v-433.1c0-13.3 10.7-24 24-24h496c13.3 0 24 10.7 24 24v433.1c0 13.2-10.7 24-24 24zm-472-48h448v-385.1H80z" fill="#ffffff" opacity="1" data-original="#231f20"></path><path d="M368.6 1184H239.4c-13.3 0-24-10.7-24-24v-129.2c0-13.3 10.7-24 24-24h129.2c13.3 0 24 10.7 24 24V1160c0 13.2-10.7 24-24 24zm-105.2-48h81.2v-81.2h-81.2zM1048 1487.9H552c-13.3 0-24-10.7-24-24v-433.1c0-13.3 10.7-24 24-24h496c13.3 0 24 10.7 24 24v433.1c0 13.2-10.7 24-24 24zm-472-48h448v-385.1H576z" fill="#ffffff" opacity="1" data-original="#231f20"></path><path d="M864.6 1184H735.4c-13.3 0-24-10.7-24-24v-129.2c0-13.3 10.7-24 24-24h129.2c13.3 0 24 10.7 24 24V1160c0 13.2-10.7 24-24 24zm-105.2-48h81.2v-81.2h-81.2zM1544 1487.9h-496c-13.3 0-24-10.7-24-24v-433.1c0-13.3 10.7-24 24-24h496c13.3 0 24 10.7 24 24v433.1c0 13.2-10.7 24-24 24zm-472-48h448v-385.1h-448z" fill="#ffffff" opacity="1" data-original="#231f20"></path><path d="M1360.6 1184h-129.2c-13.3 0-24-10.7-24-24v-129.2c0-13.3 10.7-24 24-24h129.2c13.3 0 24 10.7 24 24V1160c0 13.2-10.7 24-24 24zm-105.2-48h81.2v-81.2h-81.2z" fill="#ffffff" opacity="1" data-original="#231f20"></path></g><path fill="#ffffff" d="M800 1054.7H304c-13.3 0-24-10.7-24-24V899.5c0-13.3 10.7-24 24-24s24 10.7 24 24v107.2h448V621.6h-88.6c-13.3 0-24-10.7-24-24s10.7-24 24-24H800c13.3 0 24 10.7 24 24v433.1c0 13.3-10.7 24-24 24z" opacity="1" data-original="#231f20"></path><g fill="#231f20"><path d="M1296 1054.7H800c-13.3 0-24-10.7-24-24V597.6c0-13.3 10.7-24 24-24h496c13.3 0 24 10.7 24 24v433.1c0 13.3-10.7 24-24 24zm-472-48h448V621.6H824z" fill="#ffffff" opacity="1" data-original="#231f20"></path><path d="M1112.6 750.8H983.4c-13.3 0-24-10.7-24-24V597.6c0-13.3 10.7-24 24-24h129.2c13.3 0 24 10.7 24 24v129.2c0 13.3-10.7 24-24 24zm-105.2-48h81.2v-81.2h-81.2z" fill="#ffffff" opacity="1" data-original="#231f20"></path></g><g fill="#231f20"><path d="M552.5 321.2H287.7c-13.3 0-24-10.7-24-24V210c0-26.1 21.3-47.4 47.4-47.4h38.5c13.3 0 24 10.7 24 24s-10.7 24-24 24h-37.9v62.5h216.8v-62.5h-37.9c-13.3 0-24-10.7-24-24s10.7-24 24-24h38.5c26.1 0 47.4 21.3 47.4 47.4v87.1c0 13.3-10.7 24.1-24 24.1z" fill="#ffffff" opacity="1" data-original="#231f20"></path><path d="M687.4 923.5H152.8c-13.3 0-24-10.7-24-24V229.3c0-13.3 10.7-24 24-24h134.9c13.3 0 24 10.7 24 24s-10.7 24-24 24H176.8v622.2h486.6V253.3H552.5c-13.3 0-24-10.7-24-24s10.7-24 24-24h134.9c13.3 0 24 10.7 24 24v670.2c0 13.3-10.7 24-24 24z" fill="#ffffff" opacity="1" data-original="#231f20"></path><path d="M490.6 244.5h-141c-13.3 0-24-10.7-24-24v-84.4c0-13.3 10.7-24 24-24h141c13.3 0 24 10.7 24 24v84.4c0 13.3-10.7 24-24 24zm-117-48h93v-36.4h-93zM584.8 438.2H384.7c-13.3 0-24-10.7-24-24s10.7-24 24-24h200.1c13.3 0 24 10.7 24 24s-10.8 24-24 24zM272.2 447.9c-6.1 0-12.3-2.3-17-7l-16.7-16.7c-9.4-9.4-9.4-24.6 0-33.9 9.3-9.3 24.3-9.4 33.6-.3l21.7-21.7c9.4-9.4 24.6-9.4 33.9 0 9.4 9.4 9.4 24.6 0 33.9l-38.6 38.6c-4.6 4.7-10.8 7.1-16.9 7.1zM584.8 567.4H384.7c-13.3 0-24-10.7-24-24s10.7-24 24-24h200.1c13.3 0 24 10.7 24 24s-10.8 24-24 24zM272.2 577.1c-6.4 0-12.5-2.5-17-7l-16.7-16.7c-9.4-9.4-9.4-24.6 0-33.9 9.3-9.3 24.3-9.4 33.6-.3l21.7-21.7c9.4-9.4 24.6-9.4 33.9 0 9.4 9.4 9.4 24.6 0 33.9L289.1 570c-4.5 4.5-10.6 7.1-16.9 7.1zM584.8 696.6H384.7c-13.3 0-24-10.7-24-24s10.7-24 24-24h200.1c13.3 0 24 10.7 24 24s-10.8 24-24 24zM272.2 706.3c-6.4 0-12.5-2.5-17-7l-16.7-16.7c-9.4-9.4-9.4-24.6 0-33.9 9.3-9.3 24.3-9.4 33.6-.3l21.7-21.7c9.4-9.4 24.6-9.4 33.9 0 9.4 9.4 9.4 24.6 0 33.9l-38.6 38.6c-4.5 4.5-10.6 7.1-16.9 7.1zM584.8 825.8H384.7c-13.3 0-24-10.7-24-24s10.7-24 24-24h200.1c13.3 0 24 10.7 24 24s-10.8 24-24 24zM272.2 835.4c-6.1 0-12.3-2.3-17-7l-16.7-16.7c-9.4-9.4-9.4-24.6 0-33.9 9.3-9.3 24.3-9.4 33.6-.3l21.7-21.7c9.4-9.4 24.6-9.4 33.9 0s9.4 24.6 0 33.9l-38.6 38.6c-4.6 4.8-10.8 7.1-16.9 7.1z" fill="#ffffff" opacity="1" data-original="#231f20"></path></g></g></svg>