<svg xmlns="http://www.w3.org/2000/svg" version="1.1" xmlns:xlink="http://www.w3.org/1999/xlink" width="512" height="512" x="0" y="0" viewBox="0 0 440 440" style="enable-background:new 0 0 512 512" xml:space="preserve"><g><path d="M321.04 352H110.28c-12.216.018-22.496-9.143-23.88-21.28L57.6 79.096A8 8 0 0 0 49.648 72H8a8 8 0 0 1 0-16h41.648c12.2.003 22.457 9.158 23.84 21.28l28.848 251.624A8 8 0 0 0 110.28 336h210.76a8 8 0 0 1 0 16z" fill="#ffffff" opacity="1" data-original="#000000"></path><path d="M176 168H74.88a8 8 0 0 1 0-16H176a8 8 0 0 1 0 16zM291.2 312H91.44a8 8 0 0 1 0-16H291.2a7.951 7.951 0 0 0 7.808-6.264l4.336-19.496a8 8 0 0 1 15.616 3.472l-4.336 19.488c-2.388 11.012-12.156 18.852-23.424 18.8zM200 272a8 8 0 0 1-8-8v-53.216a8 8 0 0 1 16 0V264a8 8 0 0 1-8 8zM240 272a8.231 8.231 0 0 1-2.808-.504 8 8 0 0 1-4.685-10.298l.005-.014 5.312-14.144a8 8 0 1 1 14.976 5.599l-5.312 14.152A8 8 0 0 1 240 272zM160 272a8 8 0 0 1-7.496-5.184l-24-64a8.002 8.002 0 0 1 14.992-5.6l24 64a8 8 0 0 1-4.67 10.305l-.018.007A8.236 8.236 0 0 1 160 272zM144 432c-22.091 0-40-17.909-40-40s17.909-40 40-40 40 17.909 40 40c-.026 22.08-17.92 39.974-40 40zm0-64c-13.255 0-24 10.745-24 24s10.745 24 24 24 24-10.745 24-24-10.745-24-24-24zM264 432c-22.091 0-40-17.909-40-40s17.909-40 40-40 40 17.909 40 40c-.026 22.08-17.92 39.974-40 40zm0-64c-13.255 0-24 10.745-24 24s10.745 24 24 24 24-10.745 24-24-10.745-24-24-24zM320 248c-66.274 0-120-53.726-120-120S253.726 8 320 8s120 53.726 120 120c-.075 66.243-53.757 119.925-120 120zm0-224c-57.438 0-104 46.562-104 104s46.562 104 104 104 104-46.562 104-104c-.066-57.41-46.59-103.934-104-104z" fill="#ffffff" opacity="1" data-original="#000000"></path><path d="M321.36 186.24a251.353 251.353 0 0 1-27.608-1.472c-.632-.048-1.52-.16-2.4-.272a108.194 108.194 0 0 1-4.432-.592c-16.8-2.352-56-10.176-56-31.904a18.442 18.442 0 0 1 8.6-15.248 76.188 76.188 0 0 0 8.408-8.056c4.184-4.72 6.248-18.16 8.08-30.016 2.72-17.728 5.304-34.464 15.264-42.776a67.482 67.482 0 0 1 25.912-12.8 95.92 95.92 0 0 1 48.416 0 67.394 67.394 0 0 1 25.872 12.8c9.968 8.32 12.544 25.056 15.272 42.776 1.832 11.856 3.904 25.304 8.088 30.032a75.303 75.303 0 0 0 8.368 8.088 18.4 18.4 0 0 1 8.624 15.2c0 22.104-40.2 29.824-57.48 32.112l-2.488.336c-1.368.16-2.256.272-3.144.344a249.417 249.417 0 0 1-27.352 1.448zm0-130.24a77.893 77.893 0 0 0-20.064 2.56 51.623 51.623 0 0 0-19.784 9.64c-5.312 4.424-7.744 20.224-9.696 32.912-2.4 15.4-4.608 29.952-11.92 38.2a89.986 89.986 0 0 1-10.064 9.672 23.903 23.903 0 0 0-2.96 2.72c.048 3.288 12.216 12.152 42.328 16.368 1.248.176 2.4.36 3.648.488s1.768.232 2.4.272a240.925 240.925 0 0 0 51.944 0c.912-.064 1.6-.152 2.216-.232l2.824-.376c31.04-4.112 43.584-13.168 43.584-16.248a2.487 2.487 0 0 0 0-.488c-.224-.28-1.696-1.528-2.88-2.528a88.507 88.507 0 0 1-10.072-9.672c-7.312-8.248-9.552-22.8-11.92-38.2-1.952-12.688-4.392-28.488-9.712-32.928a51.579 51.579 0 0 0-19.728-9.6 78.188 78.188 0 0 0-20.16-2.56z" fill="#ffffff" opacity="1" data-original="#000000"></path><path d="M320.72 209.144c-18.957-.013-35.531-12.784-40.376-31.112l15.472-4.08c3.616 13.75 17.695 21.966 31.445 18.349a25.746 25.746 0 0 0 18.307-18.189l15.448 4.136c-4.911 18.218-21.427 30.881-40.296 30.896z" fill="#ffffff" opacity="1" data-original="#000000"></path></g></svg>